if (_typeface_js && _typeface_js.loadFace) _typeface_js.loadFace({"glyphs":{"0":{"ha":967,"x_min":0,"x_max":0,"o":"m 61 500 b 483 -17 61 182 225 -17 b 907 500 742 -17 907 182 b 483 1017 907 818 742 1017 b 61 500 225 1017 61 818 z m 221 500 b 483 885 221 740 315 885 b 746 500 653 885 746 740 b 483 115 746 260 653 115 b 221 500 315 115 221 260 z "},"1":{"ha":533,"x_min":0,"x_max":0,"o":"m 31 731 l 269 731 l 269 0 l 431 0 l 431 1000 l 275 1000 l 275 979 b 129 854 275 878 228 854 l 31 854 z "},"2":{"ha":842,"x_min":0,"x_max":0,"o":"m 40 688 l 199 688 b 424 889 208 826 299 889 b 628 718 547 889 628 822 b 451 447 628 618 575 554 l 61 110 l 61 0 l 804 0 l 804 131 l 283 131 l 533 331 b 788 714 661 435 788 539 b 425 1018 788 899 639 1018 b 40 708 210 1018 63 897 z "},"3":{"ha":849,"x_min":0,"x_max":0,"o":"m 32 290 b 426 -17 53 104 204 -17 b 803 282 650 -17 803 103 b 607 513 803 425 697 497 l 607 526 b 783 746 696 549 783 618 b 426 1017 783 907 635 1017 b 57 739 218 1017 76 903 l 57 718 l 210 718 b 422 889 218 828 304 889 b 624 733 542 889 624 829 b 422 578 624 636 540 578 l 318 578 l 318 450 l 428 450 b 643 285 560 450 643 388 b 425 111 643 179 560 111 b 188 311 289 111 201 179 l 32 311 z "},"4":{"ha":938,"x_min":0,"x_max":0,"o":"m 31 290 l 572 290 l 572 0 l 733 0 l 733 290 l 906 290 l 906 419 l 733 419 l 733 1000 l 549 1000 l 31 411 z m 204 419 l 558 822 l 572 822 l 572 419 z "},"5":{"ha":849,"x_min":0,"x_max":0,"o":"m 140 1000 l 86 431 l 235 431 b 419 531 260 469 310 531 b 633 326 544 531 633 456 b 413 111 633 199 544 111 b 188 306 281 111 199 197 l 38 306 l 38 285 b 415 -18 60 115 201 -18 b 792 331 633 -18 792 124 b 469 654 792 543 633 654 b 268 583 372 654 310 622 l 254 583 l 282 872 l 794 872 l 794 1000 z "},"6":{"ha":917,"x_min":0,"x_max":0,"o":"m 61 460 b 469 -18 61 131 258 -18 b 846 319 692 -18 846 125 b 508 638 846 517 690 638 b 231 492 375 638 282 579 l 217 492 b 507 889 218 747 335 889 b 708 715 640 889 701 810 l 857 715 l 857 736 b 510 1018 843 878 735 1018 b 61 460 250 1018 61 819 z m 254 310 b 471 510 254 425 339 510 b 688 311 603 510 688 425 b 471 110 688 199 603 110 b 254 310 339 110 254 199 z "},"7":{"ha":788,"x_min":0,"x_max":0,"o":"m 18 1000 l 18 872 l 588 872 l 178 21 l 178 0 l 346 0 l 765 890 l 765 1000 z "},"8":{"ha":907,"x_min":0,"x_max":0,"o":"m 75 746 b 243 521 75 644 135 564 l 243 507 b 58 269 126 465 58 383 b 453 -18 58 99 211 -18 b 849 269 694 -18 849 99 b 664 507 849 383 779 465 l 664 521 b 832 746 772 564 832 644 b 453 1018 832 903 690 1018 b 75 746 217 1018 75 903 z m 235 733 b 453 890 235 821 310 890 b 672 733 597 890 672 821 b 453 575 672 644 597 575 b 235 733 310 575 235 644 z m 219 278 b 453 447 219 375 303 447 b 688 278 604 447 688 375 b 453 110 688 181 604 110 b 219 278 303 110 219 181 z "},"9":{"ha":910,"x_min":0,"x_max":0,"o":"m 57 681 b 404 354 57 488 214 354 b 679 503 538 354 631 413 l 693 503 b 435 111 694 229 593 111 b 225 271 308 111 242 185 l 76 271 l 76 250 b 435 -18 108 97 233 -18 b 849 540 683 -18 849 168 b 436 1018 849 867 661 1018 b 57 681 210 1018 57 876 z m 215 688 b 436 890 215 803 301 890 b 657 688 571 890 657 803 b 436 483 657 571 571 483 b 215 688 301 483 215 571 z "}," ":{"ha":401,"x_min":0,"x_max":0,"o":""},"A":{"ha":958,"x_min":0,"x_max":0,"o":"m 24 0 l 186 0 l 278 260 l 681 260 l 772 0 l 935 0 l 935 21 l 572 1000 l 386 1000 l 24 21 z m 322 388 l 472 814 l 486 814 l 636 388 z "},"Á":{"ha":958,"x_min":0,"x_max":0,"o":"m 515 1069 l 675 1218 l 675 1243 l 489 1243 l 376 1093 l 376 1069 z m 24 0 l 186 0 l 278 260 l 681 260 l 772 0 l 935 0 l 935 21 l 572 1000 l 386 1000 l 24 21 z m 322 388 l 472 814 l 486 814 l 636 388 z "},"Ă":{"ha":958,"x_min":0,"x_max":0,"o":"m 479 1063 b 686 1231 613 1063 679 1142 l 686 1250 l 572 1250 b 479 1165 571 1200 544 1165 b 386 1250 414 1165 388 1201 l 272 1250 l 272 1231 b 479 1063 279 1142 346 1063 z m 572 1000 l 386 1000 l 24 21 l 24 0 l 186 0 l 278 260 l 681 260 l 772 0 l 935 0 l 935 21 z m 322 388 l 472 814 l 486 814 l 636 388 z "},"Â":{"ha":958,"x_min":0,"x_max":0,"o":"m 479 1160 l 579 1069 l 733 1069 l 733 1093 l 572 1243 l 386 1243 l 225 1093 l 225 1069 l 379 1069 z m 572 1000 l 386 1000 l 24 21 l 24 0 l 186 0 l 278 260 l 681 260 l 772 0 l 935 0 l 935 21 z m 322 388 l 472 814 l 486 814 l 636 388 z "},"Ä":{"ha":958,"x_min":0,"x_max":0,"o":"m 240 1233 l 240 1072 l 428 1072 l 428 1233 z m 531 1233 l 531 1072 l 717 1072 l 717 1233 z m 24 0 l 186 0 l 278 260 l 681 260 l 772 0 l 935 0 l 935 21 l 572 1000 l 386 1000 l 24 21 z m 322 388 l 472 814 l 486 814 l 636 388 z "},"À":{"ha":958,"x_min":0,"x_max":0,"o":"m 443 1069 l 582 1069 l 582 1093 l 469 1243 l 283 1243 l 283 1218 z m 24 0 l 186 0 l 278 260 l 681 260 l 772 0 l 935 0 l 935 21 l 572 1000 l 386 1000 l 24 21 z m 322 388 l 472 814 l 486 814 l 636 388 z "},"Ā":{"ha":958,"x_min":0,"x_max":0,"o":"m 263 1185 l 263 1076 l 696 1076 l 696 1185 z m 24 0 l 186 0 l 278 260 l 681 260 l 772 0 l 935 0 l 935 21 l 572 1000 l 386 1000 l 24 21 z m 322 388 l 472 814 l 486 814 l 636 388 z "},"Ą":{"ha":958,"x_min":0,"x_max":0,"o":"m 921 -185 b 860 -201 907 -193 888 -201 b 792 -137 819 -201 792 -174 b 935 0 792 -79 840 -39 l 935 21 l 572 1000 l 386 1000 l 24 21 l 24 0 l 186 0 l 278 260 l 681 260 l 776 -14 b 681 -167 738 -44 681 -83 b 826 -296 681 -249 747 -296 b 942 -268 882 -296 921 -279 l 942 -185 z m 322 388 l 472 814 l 486 814 l 636 388 z "},"Å":{"ha":958,"x_min":0,"x_max":0,"o":"m 479 1043 b 617 1171 558 1043 617 1097 b 479 1300 617 1246 558 1300 b 342 1171 400 1300 342 1246 b 479 1043 342 1097 400 1043 z m 479 1125 b 429 1171 450 1125 429 1143 b 479 1218 429 1199 450 1218 b 529 1171 508 1218 529 1199 b 479 1125 529 1143 508 1125 z m 24 0 l 186 0 l 278 260 l 681 260 l 772 0 l 935 0 l 935 21 l 572 1000 l 386 1000 l 24 21 z m 322 388 l 472 814 l 486 814 l 636 388 z "},"Ã":{"ha":958,"x_min":0,"x_max":0,"o":"m 393 1139 b 574 1081 451 1139 490 1081 b 733 1224 667 1081 719 1144 l 733 1244 l 635 1244 b 567 1188 626 1208 604 1188 b 386 1246 507 1188 469 1246 b 225 1104 293 1246 240 1182 l 225 1083 l 325 1083 b 393 1139 333 1118 356 1139 z m 572 1000 l 386 1000 l 24 21 l 24 0 l 186 0 l 278 260 l 681 260 l 772 0 l 935 0 l 935 21 z m 322 388 l 472 814 l 486 814 l 636 388 z "},"Æ":{"ha":1365,"x_min":0,"x_max":0,"o":"m 24 0 l 192 0 l 324 260 l 649 260 l 649 0 l 1314 0 l 1314 128 l 807 128 l 807 451 l 1224 451 l 1224 576 l 807 576 l 807 874 l 1293 874 l 1293 1000 l 542 1000 l 24 21 z m 389 389 l 635 874 l 649 874 l 649 389 z "},"B":{"ha":946,"x_min":0,"x_max":0,"o":"m 103 1000 l 103 0 l 571 0 b 890 274 751 0 890 106 b 703 514 890 403 817 483 l 703 528 b 876 751 811 560 876 639 b 576 1000 876 913 751 1000 z m 263 874 l 547 874 b 718 724 651 874 718 831 b 547 574 718 618 651 574 l 263 574 z m 263 447 l 542 447 b 731 288 650 447 731 401 b 542 128 731 174 650 128 l 263 128 z "},"C":{"ha":1079,"x_min":0,"x_max":0,"o":"m 56 500 b 571 -18 56 163 293 -18 b 1035 321 846 -18 1003 147 l 1035 342 l 874 342 b 571 111 846 217 763 111 b 215 500 365 111 215 251 b 574 890 219 749 361 890 b 860 665 749 890 843 790 l 1019 665 l 1019 686 b 575 1018 1000 829 864 1018 b 56 500 296 1018 56 838 z "},"Ć":{"ha":1079,"x_min":0,"x_max":0,"o":"m 618 1069 l 778 1218 l 778 1243 l 592 1243 l 479 1093 l 479 1069 z m 56 500 b 571 -18 56 163 293 -18 b 1035 321 846 -18 1003 147 l 1035 342 l 874 342 b 571 111 846 217 763 111 b 215 500 365 111 215 251 b 574 890 219 749 361 890 b 860 665 749 890 843 790 l 1019 665 l 1019 686 b 575 1018 1000 829 864 1018 b 56 500 296 1018 56 838 z "},"Č":{"ha":1079,"x_min":0,"x_max":0,"o":"m 488 1069 l 674 1069 l 835 1218 l 835 1243 l 681 1243 l 581 1153 l 481 1243 l 326 1243 l 326 1218 z m 874 342 b 571 111 846 217 763 111 b 215 500 365 111 215 251 b 574 890 219 749 361 890 b 860 665 749 890 843 790 l 1019 665 l 1019 686 b 575 1018 1000 829 864 1018 b 56 500 296 1018 56 838 b 571 -18 56 163 293 -18 b 1035 321 846 -18 1003 147 l 1035 342 z "},"Ç":{"ha":1079,"x_min":0,"x_max":0,"o":"m 874 342 b 571 111 846 217 763 111 b 215 500 365 111 215 251 b 574 890 219 749 361 890 b 860 665 749 890 843 790 l 1019 665 l 1019 686 b 575 1018 1000 829 864 1018 b 56 500 296 1018 56 838 b 536 -17 56 176 274 -3 l 519 -101 l 519 -122 l 610 -122 b 661 -161 644 -122 661 -137 b 599 -206 661 -185 639 -206 b 447 -151 538 -206 492 -179 l 426 -151 l 426 -249 b 600 -292 457 -264 518 -292 b 768 -161 701 -292 768 -239 b 633 -60 768 -85 701 -56 l 611 -61 l 621 -17 b 1035 321 865 3 1004 158 l 1035 342 z "},"Ċ":{"ha":1079,"x_min":0,"x_max":0,"o":"m 492 1233 l 492 1072 l 679 1072 l 679 1233 z m 56 500 b 571 -18 56 163 293 -18 b 1035 321 846 -18 1003 147 l 1035 342 l 874 342 b 571 111 846 217 763 111 b 215 500 365 111 215 251 b 574 890 219 749 361 890 b 860 665 749 890 843 790 l 1019 665 l 1019 686 b 575 1018 1000 829 864 1018 b 56 500 296 1018 56 838 z "},"D":{"ha":1007,"x_min":0,"x_max":0,"o":"m 103 1000 l 103 0 l 464 0 b 953 500 771 0 953 188 b 464 1000 953 813 771 1000 z m 263 872 l 474 872 b 793 500 683 872 793 740 b 474 129 793 258 683 129 l 263 129 z "},"Ð":{"ha":1053,"x_min":0,"x_max":0,"o":"m 510 1000 l 149 1000 l 149 535 l 21 535 l 21 479 l 149 479 l 149 0 l 510 0 b 997 500 815 0 997 188 b 510 1000 997 813 815 1000 z m 518 129 l 307 129 l 307 479 l 478 479 l 478 535 l 307 535 l 307 872 l 518 872 b 838 500 728 872 838 740 b 518 129 838 258 728 129 z "},"Ď":{"ha":1007,"x_min":0,"x_max":0,"o":"m 346 1069 l 532 1069 l 693 1218 l 693 1243 l 539 1243 l 439 1153 l 339 1243 l 185 1243 l 185 1218 z m 464 1000 l 103 1000 l 103 0 l 464 0 b 953 500 771 0 953 188 b 464 1000 953 813 771 1000 z m 474 129 l 263 129 l 263 872 l 474 872 b 793 500 683 872 793 740 b 474 129 793 258 683 129 z "},"Đ":{"ha":1053,"x_min":0,"x_max":0,"o":"m 510 1000 l 149 1000 l 149 535 l 21 535 l 21 479 l 149 479 l 149 0 l 510 0 b 997 500 815 0 997 188 b 510 1000 997 813 815 1000 z m 518 129 l 307 129 l 307 479 l 478 479 l 478 535 l 307 535 l 307 872 l 518 872 b 838 500 728 872 838 740 b 518 129 838 258 728 129 z "},"E":{"ha":876,"x_min":0,"x_max":0,"o":"m 103 1000 l 103 0 l 825 0 l 825 128 l 263 128 l 263 451 l 733 451 l 733 576 l 263 576 l 263 874 l 803 874 l 803 1000 z "},"É":{"ha":876,"x_min":0,"x_max":0,"o":"m 493 1069 l 653 1218 l 653 1243 l 467 1243 l 354 1093 l 354 1069 z m 103 1000 l 103 0 l 825 0 l 825 128 l 263 128 l 263 451 l 733 451 l 733 576 l 263 576 l 263 874 l 803 874 l 803 1000 z "},"Ě":{"ha":876,"x_min":0,"x_max":0,"o":"m 363 1069 l 549 1069 l 710 1218 l 710 1243 l 556 1243 l 456 1153 l 356 1243 l 201 1243 l 201 1218 z m 263 128 l 263 451 l 733 451 l 733 576 l 263 576 l 263 874 l 803 874 l 803 1000 l 103 1000 l 103 0 l 825 0 l 825 128 z "},"Ê":{"ha":876,"x_min":0,"x_max":0,"o":"m 457 1160 l 557 1069 l 711 1069 l 711 1093 l 550 1243 l 364 1243 l 203 1093 l 203 1069 l 357 1069 z m 263 128 l 263 451 l 733 451 l 733 576 l 263 576 l 263 874 l 803 874 l 803 1000 l 103 1000 l 103 0 l 825 0 l 825 128 z "},"Ë":{"ha":876,"x_min":0,"x_max":0,"o":"m 218 1233 l 218 1072 l 406 1072 l 406 1233 z m 508 1233 l 508 1072 l 694 1072 l 694 1233 z m 103 1000 l 103 0 l 825 0 l 825 128 l 263 128 l 263 451 l 733 451 l 733 576 l 263 576 l 263 874 l 803 874 l 803 1000 z "},"Ė":{"ha":876,"x_min":0,"x_max":0,"o":"m 367 1233 l 367 1072 l 554 1072 l 554 1233 z m 103 1000 l 103 0 l 825 0 l 825 128 l 263 128 l 263 451 l 733 451 l 733 576 l 263 576 l 263 874 l 803 874 l 803 1000 z "},"È":{"ha":876,"x_min":0,"x_max":0,"o":"m 421 1069 l 560 1069 l 560 1093 l 447 1243 l 261 1243 l 261 1218 z m 103 1000 l 103 0 l 825 0 l 825 128 l 263 128 l 263 451 l 733 451 l 733 576 l 263 576 l 263 874 l 803 874 l 803 1000 z "},"Ē":{"ha":876,"x_min":0,"x_max":0,"o":"m 240 1185 l 240 1076 l 674 1076 l 674 1185 z m 103 1000 l 103 0 l 825 0 l 825 128 l 263 128 l 263 451 l 733 451 l 733 576 l 263 576 l 263 874 l 803 874 l 803 1000 z "},"Ę":{"ha":876,"x_min":0,"x_max":0,"o":"m 767 0 l 825 0 l 825 128 l 263 128 l 263 451 l 733 451 l 733 576 l 263 576 l 263 874 l 803 874 l 803 1000 l 103 1000 l 103 0 l 625 0 l 625 -14 b 540 -157 588 -39 540 -78 b 701 -296 540 -243 611 -296 b 811 -268 756 -296 790 -281 l 811 -185 l 790 -185 b 725 -201 775 -193 754 -201 b 650 -126 681 -201 650 -171 b 767 0 650 -67 710 -22 z "},"F":{"ha":803,"x_min":0,"x_max":0,"o":"m 103 1000 l 103 0 l 263 0 l 263 436 l 719 436 l 719 563 l 263 563 l 263 874 l 772 874 l 772 1000 z "},"G":{"ha":1082,"x_min":0,"x_max":0,"o":"m 56 499 b 549 -15 56 179 275 -15 b 849 111 686 -15 785 32 l 863 111 l 886 0 l 1003 0 l 1003 486 l 528 486 l 528 363 l 858 363 b 569 111 849 232 764 111 b 215 501 356 111 215 257 b 572 890 215 744 356 890 b 872 649 756 890 854 792 l 1026 649 l 1026 669 b 578 1018 997 858 844 1018 b 56 499 276 1018 56 824 z "},"Ğ":{"ha":1082,"x_min":0,"x_max":0,"o":"m 582 1063 b 789 1231 715 1063 782 1142 l 789 1250 l 675 1250 b 582 1165 674 1200 647 1165 b 489 1250 517 1165 490 1201 l 375 1250 l 375 1231 b 582 1063 382 1142 449 1063 z m 572 890 b 872 649 756 890 854 792 l 1026 649 l 1026 669 b 578 1018 997 858 844 1018 b 56 499 276 1018 56 824 b 549 -15 56 179 275 -15 b 849 111 686 -15 785 32 l 863 111 l 886 0 l 1003 0 l 1003 486 l 528 486 l 528 363 l 858 363 b 569 111 849 232 764 111 b 215 501 356 111 215 257 b 572 890 215 744 356 890 z "},"Ģ":{"ha":1082,"x_min":0,"x_max":0,"o":"m 572 890 b 872 649 756 890 854 792 l 1026 649 l 1026 669 b 578 1018 997 858 844 1018 b 56 499 276 1018 56 824 b 549 -15 56 179 275 -15 b 849 111 686 -15 785 32 l 863 111 l 886 0 l 1003 0 l 1003 486 l 528 486 l 528 363 l 858 363 b 569 111 849 232 764 111 b 215 501 356 111 215 257 b 572 890 215 744 356 890 z m 486 -232 l 585 -232 l 585 -247 b 493 -329 585 -306 557 -329 l 463 -329 l 463 -410 l 500 -410 b 676 -244 611 -410 676 -358 l 676 -72 l 486 -72 z "},"Ġ":{"ha":1082,"x_min":0,"x_max":0,"o":"m 492 1233 l 492 1072 l 679 1072 l 679 1233 z m 56 499 b 549 -15 56 179 275 -15 b 849 111 686 -15 785 32 l 863 111 l 886 0 l 1003 0 l 1003 486 l 528 486 l 528 363 l 858 363 b 569 111 849 232 764 111 b 215 501 356 111 215 257 b 572 890 215 744 356 890 b 872 649 756 890 854 792 l 1026 649 l 1026 669 b 578 1018 997 858 844 1018 b 56 499 276 1018 56 824 z "},"H":{"ha":997,"x_min":0,"x_max":0,"o":"m 103 1000 l 103 0 l 263 0 l 263 449 l 735 449 l 735 0 l 894 0 l 894 1000 l 735 1000 l 735 576 l 263 576 l 263 1000 z "},"Ħ":{"ha":1069,"x_min":0,"x_max":0,"o":"m 1049 810 l 928 810 l 928 1000 l 768 1000 l 768 810 l 301 810 l 301 1000 l 142 1000 l 142 810 l 21 810 l 21 754 l 142 754 l 142 0 l 301 0 l 301 449 l 768 449 l 768 0 l 928 0 l 928 754 l 1049 754 z m 768 576 l 301 576 l 301 754 l 768 754 z "},"I":{"ha":367,"x_min":0,"x_max":0,"o":"m 103 1000 l 103 0 l 264 0 l 264 1000 z "},"Ĳ":{"ha":865,"x_min":0,"x_max":0,"o":"m 96 1000 l 96 444 l 257 444 l 257 1000 z m 608 1000 l 608 315 b 431 111 608 189 561 111 b 257 303 314 111 257 176 l 99 303 b 431 -18 99 79 233 -18 b 769 319 646 -18 769 94 l 769 1000 z "},"Í":{"ha":367,"x_min":0,"x_max":0,"o":"m 219 1069 l 379 1218 l 379 1243 l 193 1243 l 81 1093 l 81 1069 z m 103 1000 l 103 0 l 264 0 l 264 1000 z "},"Î":{"ha":367,"x_min":0,"x_max":0,"o":"m 276 1243 l 90 1243 l -71 1093 l -71 1069 l 83 1069 l 183 1160 l 283 1069 l 438 1069 l 438 1093 z m 103 0 l 264 0 l 264 1000 l 103 1000 z "},"Ï":{"ha":367,"x_min":0,"x_max":0,"o":"m -56 1233 l -56 1072 l 132 1072 l 132 1233 z m 235 1233 l 235 1072 l 421 1072 l 421 1233 z m 103 1000 l 103 0 l 264 0 l 264 1000 z "},"İ":{"ha":367,"x_min":0,"x_max":0,"o":"m 93 1233 l 93 1072 l 281 1072 l 281 1233 z m 103 1000 l 103 0 l 264 0 l 264 1000 z "},"Ì":{"ha":367,"x_min":0,"x_max":0,"o":"m 147 1069 l 286 1069 l 286 1093 l 174 1243 l -12 1243 l -12 1218 z m 103 1000 l 103 0 l 264 0 l 264 1000 z "},"Ī":{"ha":367,"x_min":0,"x_max":0,"o":"m -33 1185 l -33 1076 l 400 1076 l 400 1185 z m 103 1000 l 103 0 l 264 0 l 264 1000 z "},"Į":{"ha":367,"x_min":0,"x_max":0,"o":"m 286 -185 b 225 -201 271 -193 251 -201 b 157 -135 188 -201 157 -175 b 264 0 157 -76 204 -39 l 264 1000 l 103 1000 l 103 -43 b 47 -165 78 -71 47 -107 b 196 -296 47 -249 117 -296 b 307 -268 251 -296 288 -279 l 307 -185 z "},"J":{"ha":804,"x_min":0,"x_max":0,"o":"m 547 1000 l 547 315 b 368 111 547 189 499 111 b 193 303 251 111 193 176 l 35 303 b 368 -18 35 79 171 -18 b 708 319 583 -18 708 94 l 708 1000 z "},"K":{"ha":1001,"x_min":0,"x_max":0,"o":"m 978 1000 l 781 1000 l 276 540 l 263 540 l 263 1000 l 103 1000 l 103 0 l 263 0 l 263 340 l 465 521 l 800 0 l 969 0 l 969 21 l 578 622 l 978 979 z "},"Ķ":{"ha":1001,"x_min":0,"x_max":0,"o":"m 978 1000 l 781 1000 l 276 540 l 263 540 l 263 1000 l 103 1000 l 103 0 l 263 0 l 263 340 l 465 521 l 800 0 l 969 0 l 969 21 l 578 622 l 978 979 z m 408 -232 l 507 -232 l 507 -247 b 415 -329 507 -306 479 -329 l 385 -329 l 385 -410 l 422 -410 b 599 -244 533 -410 599 -358 l 599 -72 l 408 -72 z "},"L":{"ha":799,"x_min":0,"x_max":0,"o":"m 103 1000 l 103 0 l 771 0 l 771 129 l 263 129 l 263 1000 z "},"Ĺ":{"ha":799,"x_min":0,"x_max":0,"o":"m 219 1069 l 379 1218 l 379 1243 l 193 1243 l 81 1093 l 81 1069 z m 103 1000 l 103 0 l 771 0 l 771 129 l 263 129 l 263 1000 z "},"Ľ":{"ha":799,"x_min":0,"x_max":0,"o":"m 103 1000 l 103 0 l 771 0 l 771 129 l 263 129 l 263 1000 z m 449 750 l 514 979 l 514 1000 l 361 1000 l 347 771 l 347 750 z "},"Ļ":{"ha":799,"x_min":0,"x_max":0,"o":"m 263 129 l 263 1000 l 103 1000 l 103 0 l 771 0 l 771 129 z m 350 -232 l 449 -232 l 449 -247 b 357 -329 449 -306 421 -329 l 326 -329 l 326 -410 l 364 -410 b 540 -244 475 -410 540 -358 l 540 -72 l 350 -72 z "},"Ŀ":{"ha":799,"x_min":0,"x_max":0,"o":"m 103 1000 l 103 0 l 771 0 l 771 129 l 263 129 l 263 1000 z m 458 631 l 458 456 l 656 456 l 656 631 z "},"Ł":{"ha":843,"x_min":0,"x_max":0,"o":"m 307 129 l 307 494 l 461 567 l 461 622 l 440 622 l 307 560 l 307 1000 l 149 1000 l 149 485 l 21 425 l 21 369 l 42 369 l 149 419 l 149 0 l 815 0 l 815 129 z "},"M":{"ha":1326,"x_min":0,"x_max":0,"o":"m 103 1000 l 103 0 l 261 0 l 261 713 l 275 713 l 582 0 l 744 0 l 1051 713 l 1065 713 l 1065 0 l 1224 0 l 1224 1000 l 1021 1000 l 671 183 l 657 183 l 307 1000 z "},"N":{"ha":1021,"x_min":0,"x_max":0,"o":"m 103 1000 l 103 0 l 261 0 l 261 764 l 275 764 l 722 0 l 918 0 l 918 1000 l 760 1000 l 760 236 l 746 236 l 299 1000 z "},"Ń":{"ha":1021,"x_min":0,"x_max":0,"o":"m 560 1069 l 719 1218 l 719 1243 l 533 1243 l 421 1093 l 421 1069 z m 103 1000 l 103 0 l 261 0 l 261 764 l 275 764 l 722 0 l 918 0 l 918 1000 l 760 1000 l 760 236 l 746 236 l 299 1000 z "},"Ň":{"ha":1021,"x_min":0,"x_max":0,"o":"m 429 1069 l 615 1069 l 776 1218 l 776 1243 l 622 1243 l 522 1153 l 422 1243 l 268 1243 l 268 1218 z m 760 1000 l 760 236 l 746 236 l 299 1000 l 103 1000 l 103 0 l 261 0 l 261 764 l 275 764 l 722 0 l 918 0 l 918 1000 z "},"Ņ":{"ha":1021,"x_min":0,"x_max":0,"o":"m 760 1000 l 760 236 l 746 236 l 299 1000 l 103 1000 l 103 0 l 261 0 l 261 764 l 275 764 l 722 0 l 918 0 l 918 1000 z m 413 -232 l 511 -232 l 511 -247 b 419 -329 511 -306 483 -329 l 389 -329 l 389 -410 l 426 -410 b 603 -244 538 -410 603 -358 l 603 -72 l 413 -72 z "},"Ŋ":{"ha":1021,"x_min":0,"x_max":0,"o":"m 760 1000 l 760 236 l 746 236 l 299 1000 l 103 1000 l 103 0 l 261 0 l 261 764 l 275 764 l 722 0 l 769 0 l 769 -136 l 756 -150 l 576 -150 l 576 -278 l 700 -278 b 918 -60 840 -278 918 -200 l 918 1000 z "},"Ñ":{"ha":1021,"x_min":0,"x_max":0,"o":"m 436 1139 b 617 1081 494 1139 533 1081 b 776 1224 710 1081 763 1144 l 776 1244 l 678 1244 b 610 1188 669 1208 647 1188 b 429 1246 550 1188 513 1246 b 268 1104 336 1246 283 1182 l 268 1083 l 368 1083 b 436 1139 376 1118 399 1139 z m 760 1000 l 760 236 l 746 236 l 299 1000 l 103 1000 l 103 0 l 261 0 l 261 764 l 275 764 l 722 0 l 918 0 l 918 1000 z "},"O":{"ha":1149,"x_min":0,"x_max":0,"o":"m 56 500 b 575 -18 56 178 269 -18 b 1093 500 879 -18 1093 178 b 575 1018 1093 822 879 1018 b 56 500 269 1018 56 822 z m 215 500 b 575 888 215 732 346 888 b 933 500 803 888 933 732 b 575 114 933 268 803 114 b 215 500 346 114 215 268 z "},"Ó":{"ha":1149,"x_min":0,"x_max":0,"o":"m 611 1069 l 771 1218 l 771 1243 l 585 1243 l 472 1093 l 472 1069 z m 56 500 b 575 -18 56 178 269 -18 b 1093 500 879 -18 1093 178 b 575 1018 1093 822 879 1018 b 56 500 269 1018 56 822 z m 215 500 b 575 888 215 732 346 888 b 933 500 803 888 933 732 b 575 114 933 268 803 114 b 215 500 346 114 215 268 z "},"Ô":{"ha":1149,"x_min":0,"x_max":0,"o":"m 575 1160 l 675 1069 l 829 1069 l 829 1093 l 668 1243 l 482 1243 l 321 1093 l 321 1069 l 475 1069 z m 575 1018 b 56 500 269 1018 56 822 b 575 -18 56 178 269 -18 b 1093 500 879 -18 1093 178 b 575 1018 1093 822 879 1018 z m 575 114 b 215 500 346 114 215 268 b 575 888 215 732 346 888 b 933 500 803 888 933 732 b 575 114 933 268 803 114 z "},"Ö":{"ha":1149,"x_min":0,"x_max":0,"o":"m 336 1233 l 336 1072 l 524 1072 l 524 1233 z m 626 1233 l 626 1072 l 813 1072 l 813 1233 z m 56 500 b 575 -18 56 178 269 -18 b 1093 500 879 -18 1093 178 b 575 1018 1093 822 879 1018 b 56 500 269 1018 56 822 z m 215 500 b 575 888 215 732 346 888 b 933 500 803 888 933 732 b 575 114 933 268 803 114 b 215 500 346 114 215 268 z "},"Ò":{"ha":1149,"x_min":0,"x_max":0,"o":"m 539 1069 l 678 1069 l 678 1093 l 565 1243 l 379 1243 l 379 1218 z m 56 500 b 575 -18 56 178 269 -18 b 1093 500 879 -18 1093 178 b 575 1018 1093 822 879 1018 b 56 500 269 1018 56 822 z m 215 500 b 575 888 215 732 346 888 b 933 500 803 888 933 732 b 575 114 933 268 803 114 b 215 500 346 114 215 268 z "},"Ő":{"ha":1149,"x_min":0,"x_max":0,"o":"m 479 1076 l 596 1229 l 596 1250 l 435 1250 l 356 1097 l 356 1076 z m 717 1076 l 858 1229 l 858 1250 l 689 1250 l 585 1097 l 585 1076 z m 56 500 b 575 -18 56 178 269 -18 b 1093 500 879 -18 1093 178 b 575 1018 1093 822 879 1018 b 56 500 269 1018 56 822 z m 215 500 b 575 888 215 732 346 888 b 933 500 803 888 933 732 b 575 114 933 268 803 114 b 215 500 346 114 215 268 z "},"Ō":{"ha":1149,"x_min":0,"x_max":0,"o":"m 358 1185 l 358 1076 l 792 1076 l 792 1185 z m 56 500 b 575 -18 56 178 269 -18 b 1093 500 879 -18 1093 178 b 575 1018 1093 822 879 1018 b 56 500 269 1018 56 822 z m 215 500 b 575 888 215 732 346 888 b 933 500 803 888 933 732 b 575 114 933 268 803 114 b 215 500 346 114 215 268 z "},"Ø":{"ha":1149,"x_min":0,"x_max":0,"o":"m 947 881 l 1035 979 l 1035 1000 l 974 1000 l 903 919 b 575 1018 815 983 703 1018 b 56 500 269 1018 56 822 b 201 119 56 339 110 210 l 114 21 l 114 0 l 175 0 l 246 82 b 575 -18 333 17 446 -18 b 1093 500 879 -18 1093 178 b 947 881 1093 661 1039 790 z m 215 500 b 575 888 215 732 346 888 b 808 811 671 888 749 860 l 299 232 b 215 500 244 299 215 390 z m 575 114 b 342 189 479 114 400 140 l 850 768 b 933 500 904 701 933 610 b 575 114 933 268 803 114 z "},"Õ":{"ha":1149,"x_min":0,"x_max":0,"o":"m 488 1139 b 668 1081 546 1139 585 1081 b 828 1224 761 1081 814 1144 l 828 1244 l 729 1244 b 661 1188 721 1208 699 1188 b 481 1246 601 1188 564 1246 b 319 1104 388 1246 335 1182 l 319 1083 l 419 1083 b 488 1139 428 1118 450 1139 z m 575 1018 b 56 500 269 1018 56 822 b 575 -18 56 178 269 -18 b 1093 500 879 -18 1093 178 b 575 1018 1093 822 879 1018 z m 575 114 b 215 500 346 114 215 268 b 575 888 215 732 346 888 b 933 500 803 888 933 732 b 575 114 933 268 803 114 z "},"Œ":{"ha":1339,"x_min":0,"x_max":0,"o":"m 56 500 b 628 0 56 178 290 0 l 1288 0 l 1288 128 l 782 128 l 782 451 l 1197 451 l 1197 576 l 782 576 l 782 874 l 1267 874 l 1267 1000 l 628 1000 b 56 500 290 1000 56 822 z m 215 500 b 622 875 215 729 365 879 l 622 126 b 215 500 365 122 215 271 z "},"P":{"ha":903,"x_min":0,"x_max":0,"o":"m 103 1000 l 103 0 l 263 0 l 263 408 l 549 408 b 868 704 733 408 868 521 b 549 1000 868 888 733 1000 z m 263 874 l 528 874 b 708 704 639 874 708 817 b 528 535 708 593 639 535 l 263 535 z "},"Þ":{"ha":903,"x_min":0,"x_max":0,"o":"m 103 1000 l 103 0 l 263 0 l 263 219 l 547 219 b 868 515 732 219 868 331 b 547 810 868 699 732 810 l 263 810 l 263 1000 z m 263 683 l 528 683 b 707 515 639 683 707 626 b 528 346 707 403 639 346 l 263 346 z "},"Q":{"ha":1149,"x_min":0,"x_max":0,"o":"m 1093 500 b 575 1018 1093 822 879 1018 b 56 500 269 1018 56 822 b 500 -14 56 204 235 15 l 500 -58 b 685 -243 500 -174 571 -243 l 811 -243 l 811 -126 l 660 -126 l 649 -115 l 649 -14 b 1093 500 913 15 1093 204 z m 215 500 b 575 888 215 732 346 888 b 933 500 803 888 933 732 b 575 114 933 268 803 114 b 215 500 346 114 215 268 z "},"R":{"ha":947,"x_min":0,"x_max":0,"o":"m 896 701 b 565 1000 896 900 746 1000 l 103 1000 l 103 0 l 263 0 l 263 403 l 486 403 l 683 0 l 849 0 l 849 21 l 647 410 b 896 701 789 436 896 533 z m 263 874 l 540 874 b 736 701 665 874 736 815 b 540 529 736 589 665 529 l 263 529 z "},"Ŕ":{"ha":947,"x_min":0,"x_max":0,"o":"m 656 1218 l 656 1243 l 469 1243 l 357 1093 l 357 1069 l 496 1069 z m 896 701 b 565 1000 896 900 746 1000 l 103 1000 l 103 0 l 263 0 l 263 403 l 486 403 l 683 0 l 849 0 l 849 21 l 647 410 b 896 701 789 436 896 533 z m 263 874 l 540 874 b 736 701 665 874 736 815 b 540 529 736 589 665 529 l 263 529 z "},"Ř":{"ha":947,"x_min":0,"x_max":0,"o":"m 365 1069 l 551 1069 l 713 1218 l 713 1243 l 558 1243 l 458 1153 l 358 1243 l 204 1243 l 204 1218 z m 896 701 b 565 1000 896 900 746 1000 l 103 1000 l 103 0 l 263 0 l 263 403 l 486 403 l 683 0 l 849 0 l 849 21 l 647 410 b 896 701 789 436 896 533 z m 263 874 l 540 874 b 736 701 665 874 736 815 b 540 529 736 589 665 529 l 263 529 z "},"Ŗ":{"ha":947,"x_min":0,"x_max":0,"o":"m 896 701 b 565 1000 896 900 746 1000 l 103 1000 l 103 0 l 263 0 l 263 403 l 486 403 l 683 0 l 849 0 l 849 21 l 647 410 b 896 701 789 436 896 533 z m 263 874 l 540 874 b 736 701 665 874 736 815 b 540 529 736 589 665 529 l 263 529 z m 367 -232 l 465 -232 l 465 -247 b 374 -329 465 -306 438 -329 l 343 -329 l 343 -410 l 381 -410 b 557 -244 492 -410 557 -358 l 557 -72 l 367 -72 z "},"S":{"ha":956,"x_min":0,"x_max":0,"o":"m 96 729 b 375 454 96 567 201 492 l 490 429 b 714 272 628 400 714 375 b 468 110 714 174 622 110 b 190 338 311 110 203 189 l 31 338 l 31 317 b 467 -18 50 122 197 -18 b 872 288 728 -18 872 113 b 560 565 872 467 738 526 l 444 590 b 256 738 321 617 256 646 b 483 892 256 833 350 892 b 725 690 619 892 722 836 l 883 690 l 883 711 b 482 1018 868 906 719 1018 b 96 729 243 1018 96 900 z "},"Ś":{"ha":956,"x_min":0,"x_max":0,"o":"m 519 1069 l 679 1218 l 679 1243 l 493 1243 l 381 1093 l 381 1069 z m 96 729 b 375 454 96 567 201 492 l 490 429 b 714 272 628 400 714 375 b 468 110 714 174 622 110 b 190 338 311 110 203 189 l 31 338 l 31 317 b 467 -18 50 122 197 -18 b 872 288 728 -18 872 113 b 560 565 872 467 738 526 l 444 590 b 256 738 321 617 256 646 b 483 892 256 833 350 892 b 725 690 619 892 722 836 l 883 690 l 883 711 b 482 1018 868 906 719 1018 b 96 729 243 1018 96 900 z "},"Š":{"ha":956,"x_min":0,"x_max":0,"o":"m 389 1069 l 575 1069 l 736 1218 l 736 1243 l 582 1243 l 482 1153 l 382 1243 l 228 1243 l 228 1218 z m 483 892 b 725 690 619 892 722 836 l 883 690 l 883 711 b 482 1018 868 906 719 1018 b 96 729 243 1018 96 900 b 375 454 96 567 201 492 l 490 429 b 714 272 628 400 714 375 b 468 110 714 174 622 110 b 190 338 311 110 203 189 l 31 338 l 31 317 b 467 -18 50 122 197 -18 b 872 288 728 -18 872 113 b 560 565 872 467 738 526 l 444 590 b 256 738 321 617 256 646 b 483 892 256 833 350 892 z "},"Ş":{"ha":956,"x_min":0,"x_max":0,"o":"m 483 892 b 725 690 619 892 722 836 l 883 690 l 883 711 b 482 1018 868 906 719 1018 b 96 729 243 1018 96 900 b 375 454 96 567 201 492 l 490 429 b 714 272 628 400 714 375 b 468 110 714 174 622 110 b 190 338 311 110 203 189 l 31 338 l 31 317 b 419 -17 49 133 179 -1 l 403 -101 l 403 -122 l 493 -122 b 544 -161 528 -122 544 -137 b 482 -206 544 -185 522 -206 b 331 -151 421 -206 375 -179 l 310 -151 l 310 -249 b 483 -292 340 -264 401 -292 b 651 -161 585 -292 651 -239 b 517 -60 651 -85 585 -56 l 494 -61 l 504 -17 b 872 288 742 -6 872 121 b 560 565 872 467 738 526 l 444 590 b 256 738 321 617 256 646 b 483 892 256 833 350 892 z "},"Ș":{"ha":956,"x_min":0,"x_max":0,"o":"m 483 892 b 725 690 619 892 722 836 l 883 690 l 883 711 b 482 1018 868 906 719 1018 b 96 729 243 1018 96 900 b 375 454 96 567 201 492 l 490 429 b 714 272 628 400 714 375 b 468 110 714 174 622 110 b 190 338 311 110 203 189 l 31 338 l 31 317 b 467 -18 50 122 197 -18 b 872 288 728 -18 872 113 b 560 565 872 467 738 526 l 444 590 b 256 738 321 617 256 646 b 483 892 256 833 350 892 z m 371 -232 l 469 -232 l 469 -247 b 378 -329 469 -306 442 -329 l 347 -329 l 347 -410 l 385 -410 b 561 -244 496 -410 561 -358 l 561 -72 l 371 -72 z "},"T":{"ha":863,"x_min":0,"x_max":0,"o":"m 14 1000 l 14 874 l 350 874 l 350 0 l 511 0 l 511 874 l 849 874 l 849 1000 z "},"Ŧ":{"ha":863,"x_min":0,"x_max":0,"o":"m 849 874 l 849 1000 l 14 1000 l 14 874 l 350 874 l 350 563 l 181 563 l 181 507 l 350 507 l 350 0 l 511 0 l 511 507 l 682 507 l 682 563 l 511 563 l 511 874 z "},"Ť":{"ha":863,"x_min":0,"x_max":0,"o":"m 336 1069 l 522 1069 l 683 1218 l 683 1243 l 529 1243 l 429 1153 l 329 1243 l 175 1243 l 175 1218 z m 14 1000 l 14 874 l 350 874 l 350 0 l 511 0 l 511 874 l 849 874 l 849 1000 z "},"Ţ":{"ha":863,"x_min":0,"x_max":0,"o":"m 511 0 l 511 874 l 849 874 l 849 1000 l 14 1000 l 14 874 l 350 874 l 350 0 l 386 0 l 367 -101 l 367 -122 l 457 -122 b 508 -161 492 -122 508 -137 b 446 -206 508 -185 486 -206 b 294 -151 385 -206 339 -179 l 274 -151 l 274 -249 b 447 -292 304 -264 365 -292 b 615 -161 549 -292 615 -239 b 481 -60 615 -85 549 -56 l 458 -61 l 472 0 z "},"Ț":{"ha":863,"x_min":0,"x_max":0,"o":"m 14 1000 l 14 874 l 350 874 l 350 0 l 511 0 l 511 874 l 849 874 l 849 1000 z m 335 -232 l 433 -232 l 433 -247 b 342 -329 433 -306 406 -329 l 311 -329 l 311 -410 l 349 -410 b 525 -244 460 -410 525 -358 l 525 -72 l 335 -72 z "},"U":{"ha":993,"x_min":0,"x_max":0,"o":"m 96 1000 l 96 360 b 496 -18 96 128 228 -18 b 896 360 763 -18 896 128 l 896 1000 l 736 1000 l 736 353 b 496 111 736 188 657 111 b 257 353 336 111 257 188 l 257 1000 z "},"Ú":{"ha":993,"x_min":0,"x_max":0,"o":"m 532 1069 l 692 1218 l 692 1243 l 506 1243 l 393 1093 l 393 1069 z m 96 1000 l 96 360 b 496 -18 96 128 228 -18 b 896 360 763 -18 896 128 l 896 1000 l 736 1000 l 736 353 b 496 111 736 188 657 111 b 257 353 336 111 257 188 l 257 1000 z "},"Û":{"ha":993,"x_min":0,"x_max":0,"o":"m 496 1160 l 596 1069 l 750 1069 l 750 1093 l 589 1243 l 403 1243 l 242 1093 l 242 1069 l 396 1069 z m 736 1000 l 736 353 b 496 111 736 188 657 111 b 257 353 336 111 257 188 l 257 1000 l 96 1000 l 96 360 b 496 -18 96 128 228 -18 b 896 360 763 -18 896 128 l 896 1000 z "},"Ü":{"ha":993,"x_min":0,"x_max":0,"o":"m 258 1233 l 258 1072 l 446 1072 l 446 1233 z m 549 1233 l 549 1072 l 735 1072 l 735 1233 z m 96 1000 l 96 360 b 496 -18 96 128 228 -18 b 896 360 763 -18 896 128 l 896 1000 l 736 1000 l 736 353 b 496 111 736 188 657 111 b 257 353 336 111 257 188 l 257 1000 z "},"Ù":{"ha":993,"x_min":0,"x_max":0,"o":"m 460 1069 l 599 1069 l 599 1093 l 486 1243 l 300 1243 l 300 1218 z m 96 1000 l 96 360 b 496 -18 96 128 228 -18 b 896 360 763 -18 896 128 l 896 1000 l 736 1000 l 736 353 b 496 111 736 188 657 111 b 257 353 336 111 257 188 l 257 1000 z "},"Ű":{"ha":993,"x_min":0,"x_max":0,"o":"m 401 1076 l 518 1229 l 518 1250 l 357 1250 l 278 1097 l 278 1076 z m 639 1076 l 781 1229 l 781 1250 l 611 1250 l 507 1097 l 507 1076 z m 96 1000 l 96 360 b 496 -18 96 128 228 -18 b 896 360 763 -18 896 128 l 896 1000 l 736 1000 l 736 353 b 496 111 736 188 657 111 b 257 353 336 111 257 188 l 257 1000 z "},"Ū":{"ha":993,"x_min":0,"x_max":0,"o":"m 279 1185 l 279 1076 l 713 1076 l 713 1185 z m 96 1000 l 96 360 b 496 -18 96 128 228 -18 b 896 360 763 -18 896 128 l 896 1000 l 736 1000 l 736 353 b 496 111 736 188 657 111 b 257 353 336 111 257 188 l 257 1000 z "},"Ų":{"ha":993,"x_min":0,"x_max":0,"o":"m 736 1000 l 736 353 b 496 111 736 188 657 111 b 257 353 336 111 257 188 l 257 1000 l 96 1000 l 96 360 b 496 -18 96 128 228 -18 b 579 -12 525 -18 553 -17 l 579 -28 b 497 -168 543 -58 497 -99 b 646 -296 497 -247 563 -296 b 758 -268 701 -296 738 -279 l 758 -185 l 738 -185 b 675 -201 722 -193 703 -201 b 608 -137 636 -201 608 -174 b 764 57 608 -79 653 -35 b 896 360 851 122 896 226 l 896 1000 z "},"Ů":{"ha":993,"x_min":0,"x_max":0,"o":"m 496 1043 b 633 1171 575 1043 633 1097 b 496 1300 633 1246 575 1300 b 358 1171 417 1300 358 1246 b 496 1043 358 1097 417 1043 z m 496 1125 b 446 1171 467 1125 446 1143 b 496 1218 446 1199 467 1218 b 546 1171 525 1218 546 1199 b 496 1125 546 1143 525 1125 z m 96 1000 l 96 360 b 496 -18 96 128 228 -18 b 896 360 763 -18 896 128 l 896 1000 l 736 1000 l 736 353 b 496 111 736 188 657 111 b 257 353 336 111 257 188 l 257 1000 z "},"V":{"ha":958,"x_min":0,"x_max":0,"o":"m 24 1000 l 24 979 l 386 0 l 572 0 l 935 979 l 935 1000 l 772 1000 l 486 186 l 472 186 l 186 1000 z "},"W":{"ha":1408,"x_min":0,"x_max":0,"o":"m 24 1000 l 24 979 l 271 0 l 465 0 l 700 771 l 714 771 l 947 0 l 1142 0 l 1385 979 l 1385 1000 l 1222 1000 l 1040 218 l 1026 218 l 792 1000 l 621 1000 l 386 218 l 372 218 l 190 1000 z "},"Ẃ":{"ha":1408,"x_min":0,"x_max":0,"o":"m 749 1069 l 908 1218 l 908 1243 l 722 1243 l 610 1093 l 610 1069 z m 24 1000 l 24 979 l 271 0 l 465 0 l 700 771 l 714 771 l 947 0 l 1142 0 l 1385 979 l 1385 1000 l 1222 1000 l 1040 218 l 1026 218 l 792 1000 l 621 1000 l 386 218 l 372 218 l 190 1000 z "},"Ŵ":{"ha":1408,"x_min":0,"x_max":0,"o":"m 713 1160 l 813 1069 l 967 1069 l 967 1093 l 806 1243 l 619 1243 l 458 1093 l 458 1069 l 613 1069 z m 1222 1000 l 1040 218 l 1026 218 l 792 1000 l 621 1000 l 386 218 l 372 218 l 190 1000 l 24 1000 l 24 979 l 271 0 l 465 0 l 700 771 l 714 771 l 947 0 l 1142 0 l 1385 979 l 1385 1000 z "},"Ẅ":{"ha":1408,"x_min":0,"x_max":0,"o":"m 474 1233 l 474 1072 l 661 1072 l 661 1233 z m 764 1233 l 764 1072 l 950 1072 l 950 1233 z m 24 1000 l 24 979 l 271 0 l 465 0 l 700 771 l 714 771 l 947 0 l 1142 0 l 1385 979 l 1385 1000 l 1222 1000 l 1040 218 l 1026 218 l 792 1000 l 621 1000 l 386 218 l 372 218 l 190 1000 z "},"Ẁ":{"ha":1408,"x_min":0,"x_max":0,"o":"m 676 1069 l 815 1069 l 815 1093 l 703 1243 l 517 1243 l 517 1218 z m 24 1000 l 24 979 l 271 0 l 465 0 l 700 771 l 714 771 l 947 0 l 1142 0 l 1385 979 l 1385 1000 l 1222 1000 l 1040 218 l 1026 218 l 792 1000 l 621 1000 l 386 218 l 372 218 l 190 1000 z "},"X":{"ha":963,"x_min":0,"x_max":0,"o":"m 58 1000 l 58 979 l 375 513 l 14 21 l 14 0 l 183 0 l 478 411 l 492 411 l 760 0 l 932 0 l 932 21 l 596 514 l 939 979 l 939 1000 l 768 1000 l 493 615 l 479 615 l 229 1000 z "},"Y":{"ha":946,"x_min":0,"x_max":0,"o":"m 7 1000 l 7 979 l 393 361 l 393 0 l 554 0 l 554 361 l 940 979 l 940 1000 l 769 1000 l 481 524 l 467 524 l 178 1000 z "},"Ý":{"ha":946,"x_min":0,"x_max":0,"o":"m 510 1069 l 669 1218 l 669 1243 l 483 1243 l 371 1093 l 371 1069 z m 7 1000 l 7 979 l 393 361 l 393 0 l 554 0 l 554 361 l 940 979 l 940 1000 l 769 1000 l 481 524 l 467 524 l 178 1000 z "},"Ŷ":{"ha":946,"x_min":0,"x_max":0,"o":"m 474 1160 l 574 1069 l 728 1069 l 728 1093 l 567 1243 l 381 1243 l 219 1093 l 219 1069 l 374 1069 z m 769 1000 l 481 524 l 467 524 l 178 1000 l 7 1000 l 7 979 l 393 361 l 393 0 l 554 0 l 554 361 l 940 979 l 940 1000 z "},"Ÿ":{"ha":946,"x_min":0,"x_max":0,"o":"m 235 1233 l 235 1072 l 422 1072 l 422 1233 z m 525 1233 l 525 1072 l 711 1072 l 711 1233 z m 7 1000 l 7 979 l 393 361 l 393 0 l 554 0 l 554 361 l 940 979 l 940 1000 l 769 1000 l 481 524 l 467 524 l 178 1000 z "},"Ỳ":{"ha":946,"x_min":0,"x_max":0,"o":"m 438 1069 l 576 1069 l 576 1093 l 464 1243 l 278 1243 l 278 1218 z m 7 1000 l 7 979 l 393 361 l 393 0 l 554 0 l 554 361 l 940 979 l 940 1000 l 769 1000 l 481 524 l 467 524 l 178 1000 z "},"Z":{"ha":878,"x_min":0,"x_max":0,"o":"m 79 1000 l 79 874 l 603 874 l 56 101 l 56 0 l 831 0 l 831 128 l 258 128 l 806 899 l 806 1000 z "},"Ź":{"ha":878,"x_min":0,"x_max":0,"o":"m 479 1069 l 639 1218 l 639 1243 l 453 1243 l 340 1093 l 340 1069 z m 79 1000 l 79 874 l 603 874 l 56 101 l 56 0 l 831 0 l 831 128 l 258 128 l 806 899 l 806 1000 z "},"Ž":{"ha":878,"x_min":0,"x_max":0,"o":"m 349 1069 l 535 1069 l 696 1218 l 696 1243 l 542 1243 l 442 1153 l 342 1243 l 188 1243 l 188 1218 z m 258 128 l 806 899 l 806 1000 l 79 1000 l 79 874 l 603 874 l 56 101 l 56 0 l 831 0 l 831 128 z "},"Ż":{"ha":878,"x_min":0,"x_max":0,"o":"m 353 1233 l 353 1072 l 540 1072 l 540 1233 z m 79 1000 l 79 874 l 603 874 l 56 101 l 56 0 l 831 0 l 831 128 l 258 128 l 806 899 l 806 1000 z "},"a":{"ha":790,"x_min":0,"x_max":0,"o":"m 71 469 l 217 469 b 393 607 225 560 290 607 b 557 454 493 607 557 561 l 557 426 l 288 399 b 51 188 149 385 51 315 b 308 -15 51 69 146 -15 b 547 97 424 -15 501 26 l 561 97 l 561 0 l 704 0 l 704 449 b 394 725 704 636 574 725 b 71 490 213 725 92 631 z m 203 204 b 324 294 203 260 249 288 l 557 319 l 557 310 b 340 103 557 171 456 103 b 203 204 257 103 203 139 z "},"á":{"ha":790,"x_min":0,"x_max":0,"o":"m 421 806 l 568 979 l 568 1000 l 401 1000 l 292 826 l 292 806 z m 71 469 l 217 469 b 393 607 225 560 290 607 b 557 454 493 607 557 561 l 557 426 l 288 399 b 51 188 149 385 51 315 b 308 -15 51 69 146 -15 b 547 97 424 -15 501 26 l 561 97 l 561 0 l 704 0 l 704 449 b 394 725 704 636 574 725 b 71 490 213 725 92 631 z m 203 204 b 324 294 203 260 249 288 l 557 319 l 557 310 b 340 103 557 171 456 103 b 203 204 257 103 203 139 z "},"ă":{"ha":790,"x_min":0,"x_max":0,"o":"m 392 793 b 608 979 535 793 600 886 l 608 1000 l 494 1000 b 392 903 492 943 461 903 b 289 1000 322 903 292 943 l 176 1000 l 176 979 b 392 793 183 886 250 793 z m 394 725 b 71 490 213 725 92 631 l 71 469 l 217 469 b 393 607 225 560 290 607 b 557 454 493 607 557 561 l 557 426 l 288 399 b 51 188 149 385 51 315 b 308 -15 51 69 146 -15 b 547 97 424 -15 501 26 l 561 97 l 561 0 l 704 0 l 704 449 b 394 725 704 636 574 725 z m 557 310 b 340 103 557 171 456 103 b 203 204 257 103 203 139 b 324 294 203 260 249 288 l 557 319 z "},"â":{"ha":790,"x_min":0,"x_max":0,"o":"m 392 919 l 489 806 l 617 806 l 617 826 l 478 1000 l 307 1000 l 168 826 l 168 806 l 296 806 z m 394 725 b 71 490 213 725 92 631 l 71 469 l 217 469 b 393 607 225 560 290 607 b 557 454 493 607 557 561 l 557 426 l 288 399 b 51 188 149 385 51 315 b 308 -15 51 69 146 -15 b 547 97 424 -15 501 26 l 561 97 l 561 0 l 704 0 l 704 449 b 394 725 704 636 574 725 z m 557 310 b 340 103 557 171 456 103 b 203 204 257 103 203 139 b 324 294 203 260 249 288 l 557 319 z "},"ä":{"ha":790,"x_min":0,"x_max":0,"o":"m 165 976 l 165 819 l 340 819 l 340 976 z m 443 976 l 443 819 l 618 819 l 618 976 z m 71 469 l 217 469 b 393 607 225 560 290 607 b 557 454 493 607 557 561 l 557 426 l 288 399 b 51 188 149 385 51 315 b 308 -15 51 69 146 -15 b 547 97 424 -15 501 26 l 561 97 l 561 0 l 704 0 l 704 449 b 394 725 704 636 574 725 b 71 490 213 725 92 631 z m 203 204 b 324 294 203 260 249 288 l 557 319 l 557 310 b 340 103 557 171 456 103 b 203 204 257 103 203 139 z "},"à":{"ha":790,"x_min":0,"x_max":0,"o":"m 360 806 l 489 806 l 489 826 l 379 1000 l 213 1000 l 213 979 z m 71 469 l 217 469 b 393 607 225 560 290 607 b 557 454 493 607 557 561 l 557 426 l 288 399 b 51 188 149 385 51 315 b 308 -15 51 69 146 -15 b 547 97 424 -15 501 26 l 561 97 l 561 0 l 704 0 l 704 449 b 394 725 704 636 574 725 b 71 490 213 725 92 631 z m 203 204 b 324 294 203 260 249 288 l 557 319 l 557 310 b 340 103 557 171 456 103 b 203 204 257 103 203 139 z "},"ā":{"ha":790,"x_min":0,"x_max":0,"o":"m 179 932 l 179 819 l 606 819 l 606 932 z m 71 469 l 217 469 b 393 607 225 560 290 607 b 557 454 493 607 557 561 l 557 426 l 288 399 b 51 188 149 385 51 315 b 308 -15 51 69 146 -15 b 547 97 424 -15 501 26 l 561 97 l 561 0 l 704 0 l 704 449 b 394 725 704 636 574 725 b 71 490 213 725 92 631 z m 203 204 b 324 294 203 260 249 288 l 557 319 l 557 310 b 340 103 557 171 456 103 b 203 204 257 103 203 139 z "},"ą":{"ha":790,"x_min":0,"x_max":0,"o":"m 704 0 l 704 449 b 394 725 704 636 574 725 b 71 490 213 725 92 631 l 71 469 l 217 469 b 393 607 225 560 290 607 b 557 454 493 607 557 561 l 557 426 l 288 399 b 51 188 149 385 51 315 b 308 -15 51 69 146 -15 b 547 97 424 -15 501 26 l 561 97 l 561 -10 b 443 -164 515 -32 443 -74 b 592 -296 443 -246 510 -296 b 704 -268 647 -296 683 -279 l 704 -185 l 683 -185 b 621 -201 668 -193 649 -201 b 553 -137 582 -201 553 -174 b 704 0 553 -78 604 -42 z m 557 310 b 340 103 557 171 456 103 b 203 204 257 103 203 139 b 324 294 203 260 249 288 l 557 319 z "},"å":{"ha":790,"x_min":0,"x_max":0,"o":"m 393 775 b 528 899 468 775 528 826 b 393 1022 528 971 468 1022 b 258 899 318 1022 258 971 b 393 775 258 826 318 775 z m 393 846 b 339 899 363 846 339 867 b 393 950 339 931 363 950 b 447 899 424 950 447 931 b 393 846 447 867 424 846 z m 71 469 l 217 469 b 393 607 225 560 290 607 b 557 454 493 607 557 561 l 557 426 l 288 399 b 51 188 149 385 51 315 b 308 -15 51 69 146 -15 b 547 97 424 -15 501 26 l 561 97 l 561 0 l 704 0 l 704 449 b 394 725 704 636 574 725 b 71 490 213 725 92 631 z m 203 204 b 324 294 203 260 249 288 l 557 319 l 557 310 b 340 103 557 171 456 103 b 203 204 257 103 203 139 z "},"ã":{"ha":790,"x_min":0,"x_max":0,"o":"m 300 864 b 486 799 364 864 396 799 b 656 947 589 799 644 872 l 656 968 l 553 968 b 485 908 546 932 526 908 b 299 972 422 908 389 972 b 129 825 196 972 142 899 l 129 804 l 233 804 b 300 864 239 840 260 864 z m 394 725 b 71 490 213 725 92 631 l 71 469 l 217 469 b 393 607 225 560 290 607 b 557 454 493 607 557 561 l 557 426 l 288 399 b 51 188 149 385 51 315 b 308 -15 51 69 146 -15 b 547 97 424 -15 501 26 l 561 97 l 561 0 l 704 0 l 704 449 b 394 725 704 636 574 725 z m 557 310 b 340 103 557 171 456 103 b 203 204 257 103 203 139 b 324 294 203 260 249 288 l 557 319 z "},"æ":{"ha":1296,"x_min":0,"x_max":0,"o":"m 51 207 b 336 -15 51 82 160 -15 b 617 125 485 -15 568 44 l 631 125 b 913 -17 685 38 779 -17 b 1242 213 1115 -17 1217 106 l 1242 233 l 1097 233 b 913 106 1079 163 1026 106 b 707 313 781 106 708 190 l 1249 313 l 1249 368 b 907 725 1249 586 1113 725 b 651 603 790 725 704 676 l 638 603 b 392 725 593 678 504 725 b 74 494 214 725 96 632 l 74 474 l 218 474 b 392 606 229 564 292 606 b 556 454 493 606 556 561 l 556 422 l 333 422 b 51 207 160 422 51 346 z m 707 422 b 907 606 714 528 776 606 b 1097 422 1033 606 1094 528 z m 201 214 b 338 313 201 272 243 313 l 556 313 b 349 106 556 165 464 106 b 201 214 261 106 201 146 z "},"b":{"ha":853,"x_min":0,"x_max":0,"o":"m 89 1000 l 89 0 l 204 0 l 232 83 l 246 83 b 467 -15 290 25 363 -15 b 804 354 656 -15 804 122 b 471 725 804 588 657 725 b 251 633 365 725 296 688 l 238 633 l 238 1000 z m 228 354 b 440 604 228 514 311 604 b 653 354 569 604 653 514 b 440 106 653 196 569 106 b 228 354 311 106 228 196 z "},"c":{"ha":785,"x_min":0,"x_max":0,"o":"m 49 354 b 417 -17 49 125 199 -17 b 750 233 626 -17 726 110 l 750 254 l 608 254 b 421 106 594 176 546 106 b 199 354 286 106 199 192 b 418 604 199 518 286 604 b 599 469 539 604 583 542 l 740 469 l 740 490 b 417 726 718 607 622 726 b 49 354 199 726 49 585 z "},"ć":{"ha":785,"x_min":0,"x_max":0,"o":"m 446 806 l 593 979 l 593 1000 l 426 1000 l 317 826 l 317 806 z m 49 354 b 417 -17 49 125 199 -17 b 750 233 626 -17 726 110 l 750 254 l 608 254 b 421 106 594 176 546 106 b 199 354 286 106 199 192 b 418 604 199 518 286 604 b 599 469 539 604 583 542 l 740 469 l 740 490 b 417 726 718 607 622 726 b 49 354 199 726 49 585 z "},"č":{"ha":785,"x_min":0,"x_max":0,"o":"m 332 806 l 503 806 l 642 979 l 642 1000 l 514 1000 l 417 886 l 321 1000 l 193 1000 l 193 979 z m 608 254 b 421 106 594 176 546 106 b 199 354 286 106 199 192 b 418 604 199 518 286 604 b 599 469 539 604 583 542 l 740 469 l 740 490 b 417 726 718 607 622 726 b 49 354 199 726 49 585 b 417 -17 49 125 199 -17 b 750 233 626 -17 726 110 l 750 254 z "},"ç":{"ha":785,"x_min":0,"x_max":0,"o":"m 608 254 b 421 106 594 176 546 106 b 199 354 286 106 199 192 b 418 604 199 518 286 604 b 599 469 539 604 583 542 l 740 469 l 740 490 b 417 726 718 607 622 726 b 49 354 199 726 49 585 b 372 -15 49 140 179 3 l 356 -101 l 356 -122 l 446 -122 b 497 -161 481 -122 497 -137 b 435 -206 497 -185 475 -206 b 283 -151 374 -206 328 -179 l 263 -151 l 263 -249 b 436 -292 293 -264 354 -292 b 604 -161 538 -292 604 -239 b 469 -60 604 -85 538 -56 l 447 -61 l 458 -15 b 750 233 639 0 728 118 l 750 254 z "},"ċ":{"ha":785,"x_min":0,"x_max":0,"o":"m 324 976 l 324 819 l 511 819 l 511 976 z m 49 354 b 417 -17 49 125 199 -17 b 750 233 626 -17 726 110 l 750 254 l 608 254 b 421 106 594 176 546 106 b 199 354 286 106 199 192 b 418 604 199 518 286 604 b 599 469 539 604 583 542 l 740 469 l 740 490 b 417 726 718 607 622 726 b 49 354 199 726 49 585 z "},"d":{"ha":853,"x_min":0,"x_max":0,"o":"m 49 354 b 379 -15 49 122 196 -15 b 606 86 489 -15 563 26 l 619 86 l 619 0 l 763 0 l 763 1000 l 615 1000 l 615 633 l 601 633 b 383 725 558 688 489 725 b 49 354 196 725 49 588 z m 199 354 b 413 604 199 514 283 604 b 625 354 540 604 625 514 b 413 106 625 196 540 106 b 199 354 283 106 199 196 z "},"ð":{"ha":804,"x_min":0,"x_max":0,"o":"m 560 882 l 685 944 l 685 1000 l 660 1000 l 504 922 b 250 1000 433 968 347 993 l 226 1000 l 226 885 b 371 856 275 885 325 875 l 226 783 l 226 728 l 250 728 l 436 821 b 574 617 500 776 551 708 l 560 617 b 392 674 518 653 463 674 b 49 328 197 674 49 528 b 403 -19 49 126 193 -19 b 757 347 613 -19 757 126 b 560 882 757 593 686 774 z m 403 103 b 190 328 276 103 190 189 b 403 551 190 465 276 551 b 614 328 528 551 614 465 b 403 103 614 189 528 103 z "},"ď":{"ha":971,"x_min":0,"x_max":0,"o":"m 49 354 b 379 -15 49 122 196 -15 b 606 86 489 -15 563 26 l 619 86 l 619 0 l 763 0 l 763 1000 l 615 1000 l 615 633 l 601 633 b 383 725 558 688 489 725 b 49 354 196 725 49 588 z m 932 711 l 996 979 l 996 1000 l 853 1000 l 839 732 l 839 711 z m 199 354 b 413 604 199 514 283 604 b 625 354 540 604 625 514 b 413 106 625 196 540 106 b 199 354 283 106 199 196 z "},"đ":{"ha":899,"x_min":0,"x_max":0,"o":"m 885 886 l 763 886 l 763 1000 l 615 1000 l 615 886 l 438 886 l 438 831 l 615 831 l 615 633 l 601 633 b 383 725 558 688 488 725 b 49 354 196 725 49 588 b 379 -15 49 122 196 -15 b 606 86 489 -15 563 26 l 619 86 l 619 0 l 763 0 l 763 831 l 885 831 z m 413 106 b 199 354 283 106 199 196 b 413 604 199 514 283 604 b 625 354 540 604 625 514 b 413 106 625 196 540 106 z "},"e":{"ha":793,"x_min":0,"x_max":0,"o":"m 49 354 b 410 -17 49 125 190 -17 b 739 213 613 -17 714 106 l 739 233 l 594 233 b 408 104 576 163 522 104 b 201 313 279 104 204 190 l 746 313 l 746 382 b 406 725 746 586 614 725 b 49 354 193 725 49 585 z m 201 425 b 406 607 210 529 274 607 b 597 425 531 607 594 528 z "},"é":{"ha":793,"x_min":0,"x_max":0,"o":"m 436 806 l 583 979 l 583 1000 l 417 1000 l 307 826 l 307 806 z m 49 354 b 410 -17 49 125 190 -17 b 739 213 613 -17 714 106 l 739 233 l 594 233 b 408 104 576 163 522 104 b 201 313 279 104 204 190 l 746 313 l 746 382 b 406 725 746 586 614 725 b 49 354 193 725 49 585 z m 201 425 b 406 607 210 529 274 607 b 597 425 531 607 594 528 z "},"ě":{"ha":793,"x_min":0,"x_max":0,"o":"m 324 806 l 494 806 l 633 979 l 633 1000 l 506 1000 l 408 886 l 313 1000 l 185 1000 l 185 979 z m 746 382 b 406 725 746 586 614 725 b 49 354 193 725 49 585 b 410 -17 49 125 190 -17 b 739 213 613 -17 714 106 l 739 233 l 594 233 b 408 104 576 163 522 104 b 201 313 279 104 204 190 l 746 313 z m 201 425 b 406 607 210 529 274 607 b 597 425 531 607 594 528 z "},"ê":{"ha":793,"x_min":0,"x_max":0,"o":"m 407 919 l 504 806 l 632 806 l 632 826 l 493 1000 l 322 1000 l 183 826 l 183 806 l 311 806 z m 746 382 b 406 725 746 586 614 725 b 49 354 193 725 49 585 b 410 -17 49 125 190 -17 b 739 213 613 -17 714 106 l 739 233 l 594 233 b 408 104 576 163 522 104 b 201 313 279 104 204 190 l 746 313 z m 201 425 b 406 607 210 529 274 607 b 597 425 531 607 594 528 z "},"ë":{"ha":793,"x_min":0,"x_max":0,"o":"m 182 976 l 182 819 l 357 819 l 357 976 z m 460 976 l 460 819 l 635 819 l 635 976 z m 49 354 b 410 -17 49 125 190 -17 b 739 213 613 -17 714 106 l 739 233 l 594 233 b 408 104 576 163 522 104 b 201 313 279 104 204 190 l 746 313 l 746 382 b 406 725 746 586 614 725 b 49 354 193 725 49 585 z m 201 425 b 406 607 210 529 274 607 b 597 425 531 607 594 528 z "},"ė":{"ha":793,"x_min":0,"x_max":0,"o":"m 315 976 l 315 819 l 503 819 l 503 976 z m 49 354 b 410 -17 49 125 190 -17 b 739 213 613 -17 714 106 l 739 233 l 594 233 b 408 104 576 163 522 104 b 201 313 279 104 204 190 l 746 313 l 746 382 b 406 725 746 586 614 725 b 49 354 193 725 49 585 z m 201 425 b 406 607 210 529 274 607 b 597 425 531 607 594 528 z "},"è":{"ha":793,"x_min":0,"x_max":0,"o":"m 376 806 l 506 806 l 506 826 l 396 1000 l 229 1000 l 229 979 z m 49 354 b 410 -17 49 125 190 -17 b 739 213 613 -17 714 106 l 739 233 l 594 233 b 408 104 576 163 522 104 b 201 313 279 104 204 190 l 746 313 l 746 382 b 406 725 746 586 614 725 b 49 354 193 725 49 585 z m 201 425 b 406 607 210 529 274 607 b 597 425 531 607 594 528 z "},"ē":{"ha":793,"x_min":0,"x_max":0,"o":"m 194 932 l 194 819 l 621 819 l 621 932 z m 49 354 b 410 -17 49 125 190 -17 b 739 213 613 -17 714 106 l 739 233 l 594 233 b 408 104 576 163 522 104 b 201 313 279 104 204 190 l 746 313 l 746 382 b 406 725 746 586 614 725 b 49 354 193 725 49 585 z m 201 425 b 406 607 210 529 274 607 b 597 425 531 607 594 528 z "},"ę":{"ha":793,"x_min":0,"x_max":0,"o":"m 746 382 b 406 725 746 586 614 725 b 49 354 193 725 49 585 b 410 -17 49 125 190 -17 b 442 -15 421 -17 432 -17 l 442 -29 b 364 -168 410 -57 364 -94 b 511 -296 364 -249 432 -296 b 625 -268 567 -296 604 -279 l 625 -185 l 604 -185 b 542 -201 589 -193 569 -201 b 474 -137 503 -201 474 -174 b 610 36 474 -79 510 -37 b 739 213 683 81 724 150 l 739 233 l 594 233 b 408 104 576 163 522 104 b 201 313 279 104 204 190 l 746 313 z m 201 425 b 406 607 210 529 274 607 b 597 425 531 607 594 528 z "},"f":{"ha":529,"x_min":0,"x_max":0,"o":"m 11 710 l 11 596 l 171 596 l 171 0 l 319 0 l 319 596 l 503 596 l 503 710 l 319 710 l 319 874 l 332 886 l 544 886 l 544 1000 l 360 1000 b 171 815 238 1000 171 933 l 171 710 z "},"g":{"ha":846,"x_min":0,"x_max":0,"o":"m 49 367 b 382 8 49 138 192 8 b 596 103 489 8 556 50 l 611 103 l 611 33 b 401 -175 611 -99 547 -175 b 197 -47 267 -175 218 -108 l 49 -47 l 49 -68 b 400 -294 69 -160 163 -294 b 757 42 643 -294 757 -169 l 757 710 l 642 710 l 614 626 l 600 626 b 382 725 560 682 490 725 b 49 367 192 725 49 596 z m 199 367 b 410 604 199 522 283 604 b 619 367 535 604 619 522 b 410 129 619 211 535 129 b 199 367 283 129 199 211 z "},"ğ":{"ha":846,"x_min":0,"x_max":0,"o":"m 419 793 b 636 979 563 793 628 886 l 636 1000 l 522 1000 b 419 903 519 943 489 903 b 317 1000 350 903 319 943 l 204 1000 l 204 979 b 419 793 211 886 278 793 z m 642 710 l 614 626 l 600 626 b 382 725 560 682 490 725 b 49 367 192 725 49 596 b 382 8 49 138 192 8 b 596 103 489 8 556 50 l 611 103 l 611 33 b 401 -175 611 -99 547 -175 b 197 -47 267 -175 218 -108 l 49 -47 l 49 -68 b 400 -294 69 -160 163 -294 b 757 42 643 -294 757 -169 l 757 710 z m 410 129 b 199 367 283 129 199 211 b 410 604 199 522 283 604 b 619 367 535 604 619 522 b 410 129 619 211 535 129 z "},"ģ":{"ha":846,"x_min":0,"x_max":0,"o":"m 521 976 l 422 976 l 422 990 b 514 1072 422 1049 451 1072 l 543 1072 l 543 1154 l 507 1154 b 331 989 396 1154 331 1101 l 331 815 l 521 815 z m 642 710 l 614 626 l 600 626 b 382 725 560 682 490 725 b 49 367 192 725 49 596 b 382 8 49 138 192 8 b 596 103 489 8 556 50 l 611 103 l 611 33 b 401 -175 611 -99 547 -175 b 197 -47 267 -175 218 -108 l 49 -47 l 49 -68 b 400 -294 69 -160 163 -294 b 757 42 643 -294 757 -169 l 757 710 z m 410 129 b 199 367 283 129 199 211 b 410 604 199 522 283 604 b 619 367 535 604 619 522 b 410 129 619 211 535 129 z "},"ġ":{"ha":846,"x_min":0,"x_max":0,"o":"m 326 976 l 326 819 l 514 819 l 514 976 z m 49 367 b 382 8 49 138 192 8 b 596 103 489 8 556 50 l 611 103 l 611 33 b 401 -175 611 -99 547 -175 b 197 -47 267 -175 218 -108 l 49 -47 l 49 -68 b 400 -294 69 -160 163 -294 b 757 42 643 -294 757 -169 l 757 710 l 642 710 l 614 626 l 600 626 b 382 725 560 682 490 725 b 49 367 192 725 49 596 z m 199 367 b 410 604 199 522 283 604 b 619 367 535 604 619 522 b 410 129 619 211 535 129 b 199 367 283 129 199 211 z "},"h":{"ha":826,"x_min":0,"x_max":0,"o":"m 89 0 l 238 0 l 238 378 b 443 607 238 521 319 607 b 593 457 526 607 593 565 l 593 0 l 742 0 l 742 472 b 481 725 742 651 610 725 b 251 617 371 725 294 689 l 238 617 l 238 1000 l 89 1000 z "},"ħ":{"ha":872,"x_min":0,"x_max":0,"o":"m 526 725 b 297 617 417 725 340 689 l 283 617 l 283 831 l 461 831 l 461 886 l 283 886 l 283 1000 l 135 1000 l 135 886 l 14 886 l 14 831 l 135 831 l 135 0 l 283 0 l 283 378 b 489 607 283 521 365 607 b 639 457 572 607 639 565 l 639 0 l 788 0 l 788 472 b 526 725 788 651 656 725 z "},"i":{"ha":326,"x_min":0,"x_max":0,"o":"m 69 976 l 69 819 l 257 819 l 257 976 z m 89 710 l 89 0 l 238 0 l 238 710 z "},"ı":{"ha":326,"x_min":0,"x_max":0,"o":"m 89 710 l 89 0 l 238 0 l 238 710 z "},"í":{"ha":326,"x_min":0,"x_max":0,"o":"m 192 806 l 339 979 l 339 1000 l 172 1000 l 63 826 l 63 806 z m 89 710 l 89 0 l 238 0 l 238 710 z "},"î":{"ha":326,"x_min":0,"x_max":0,"o":"m 249 1000 l 78 1000 l -61 826 l -61 806 l 67 806 l 163 919 l 260 806 l 388 806 l 388 826 z m 89 0 l 238 0 l 238 710 l 89 710 z "},"ï":{"ha":326,"x_min":0,"x_max":0,"o":"m -62 976 l -62 819 l 113 819 l 113 976 z m 215 976 l 215 819 l 390 819 l 390 976 z m 89 710 l 89 0 l 238 0 l 238 710 z "},"ì":{"ha":326,"x_min":0,"x_max":0,"o":"m 131 806 l 260 806 l 260 826 l 150 1000 l -17 1000 l -17 979 z m 89 710 l 89 0 l 238 0 l 238 710 z "},"ĳ":{"ha":668,"x_min":0,"x_max":0,"o":"m 69 976 l 69 819 l 257 819 l 257 976 z m 411 976 l 411 819 l 599 819 l 599 976 z m 89 710 l 89 0 l 238 0 l 238 710 z m 431 710 l 431 -147 l 418 -160 l 243 -160 l 243 -278 l 394 -278 b 579 -96 513 -278 579 -211 l 579 710 z "},"ī":{"ha":326,"x_min":0,"x_max":0,"o":"m -50 932 l -50 819 l 376 819 l 376 932 z m 89 710 l 89 0 l 238 0 l 238 710 z "},"į":{"ha":326,"x_min":0,"x_max":0,"o":"m 244 976 l 57 976 l 57 819 l 244 819 z m 261 -185 b 201 -201 247 -193 229 -201 b 133 -133 164 -201 133 -175 b 238 0 133 -74 185 -39 l 238 710 l 89 710 l 89 -36 b 24 -165 60 -64 24 -101 b 172 -296 24 -249 92 -296 b 282 -268 229 -296 263 -279 l 282 -185 z "},"j":{"ha":342,"x_min":0,"x_max":0,"o":"m 85 976 l 85 819 l 272 819 l 272 976 z m 104 710 l 104 -147 l 92 -160 l -83 -160 l -83 -278 l 68 -278 b 253 -96 186 -278 253 -211 l 253 710 z "},"ȷ":{"ha":342,"x_min":0,"x_max":0,"o":"m 104 710 l 104 -147 l 92 -160 l -83 -160 l -83 -278 l 68 -278 b 253 -96 186 -278 253 -211 l 253 710 z "},"k":{"ha":796,"x_min":0,"x_max":0,"o":"m 486 440 l 768 689 l 768 710 l 588 710 l 251 408 l 238 408 l 238 1000 l 89 1000 l 89 0 l 238 0 l 238 222 l 381 349 l 613 0 l 772 0 l 772 21 z "},"ķ":{"ha":796,"x_min":0,"x_max":0,"o":"m 486 440 l 768 689 l 768 710 l 588 710 l 251 408 l 238 408 l 238 1000 l 89 1000 l 89 0 l 238 0 l 238 222 l 381 349 l 613 0 l 772 0 l 772 21 z m 311 -232 l 410 -232 l 410 -247 b 318 -329 410 -306 382 -329 l 288 -329 l 288 -410 l 325 -410 b 501 -244 436 -410 501 -358 l 501 -72 l 311 -72 z "},"l":{"ha":326,"x_min":0,"x_max":0,"o":"m 89 1000 l 89 0 l 238 0 l 238 1000 z "},"ĺ":{"ha":326,"x_min":0,"x_max":0,"o":"m 200 1069 l 360 1218 l 360 1243 l 174 1243 l 61 1093 l 61 1069 z m 89 1000 l 89 0 l 238 0 l 238 1000 z "},"ľ":{"ha":446,"x_min":0,"x_max":0,"o":"m 89 1000 l 89 0 l 238 0 l 238 1000 z m 407 711 l 469 979 l 469 1000 l 328 1000 l 314 732 l 314 711 z "},"ļ":{"ha":326,"x_min":0,"x_max":0,"o":"m 238 1000 l 89 1000 l 89 0 l 238 0 z m 68 -72 l 68 -232 l 167 -232 l 167 -247 b 75 -329 167 -306 139 -329 l 44 -329 l 44 -410 l 82 -410 b 258 -244 193 -410 258 -358 l 258 -72 z "},"ŀ":{"ha":554,"x_min":0,"x_max":0,"o":"m 89 1000 l 89 0 l 238 0 l 238 1000 z m 354 478 l 354 314 l 526 314 l 526 478 z "},"ł":{"ha":496,"x_min":0,"x_max":0,"o":"m 461 618 l 440 618 l 315 560 l 315 1000 l 167 1000 l 167 490 l 28 425 l 28 369 l 49 369 l 167 425 l 167 0 l 315 0 l 315 494 l 461 563 z "},"m":{"ha":1254,"x_min":0,"x_max":0,"o":"m 89 710 l 89 0 l 238 0 l 238 404 b 415 607 238 533 308 607 b 556 464 504 607 556 560 l 556 0 l 703 0 l 703 404 b 882 607 703 533 774 607 b 1021 464 969 607 1021 560 l 1021 0 l 1169 0 l 1169 478 b 921 725 1169 644 1056 725 b 685 604 804 725 728 674 l 671 604 b 456 725 628 682 554 725 b 244 619 356 725 286 685 l 231 619 l 231 710 z "},"n":{"ha":826,"x_min":0,"x_max":0,"o":"m 89 710 l 89 0 l 238 0 l 238 378 b 443 607 238 521 319 607 b 593 457 526 607 593 565 l 593 0 l 742 0 l 742 472 b 481 725 742 651 610 725 b 246 601 363 725 289 682 l 232 601 l 232 710 z "},"ń":{"ha":826,"x_min":0,"x_max":0,"o":"m 439 806 l 586 979 l 586 1000 l 419 1000 l 310 826 l 310 806 z m 89 710 l 89 0 l 238 0 l 238 378 b 443 607 238 521 319 607 b 593 457 526 607 593 565 l 593 0 l 742 0 l 742 472 b 481 725 742 651 610 725 b 246 601 363 725 289 682 l 232 601 l 232 710 z "},"ň":{"ha":826,"x_min":0,"x_max":0,"o":"m 325 806 l 496 806 l 635 979 l 635 1000 l 507 1000 l 410 886 l 314 1000 l 186 1000 l 186 979 z m 481 725 b 246 601 363 725 289 682 l 232 601 l 232 710 l 89 710 l 89 0 l 238 0 l 238 378 b 443 607 238 521 319 607 b 593 457 526 607 593 565 l 593 0 l 742 0 l 742 472 b 481 725 742 651 610 725 z "},"ņ":{"ha":826,"x_min":0,"x_max":0,"o":"m 481 725 b 246 601 363 725 289 682 l 232 601 l 232 710 l 89 710 l 89 0 l 238 0 l 238 378 b 443 607 238 521 319 607 b 593 457 526 607 593 565 l 593 0 l 742 0 l 742 472 b 481 725 742 651 610 725 z m 322 -232 l 421 -232 l 421 -247 b 329 -329 421 -306 393 -329 l 299 -329 l 299 -410 l 336 -410 b 513 -244 447 -410 513 -358 l 513 -72 l 322 -72 z "},"ŋ":{"ha":826,"x_min":0,"x_max":0,"o":"m 481 725 b 246 601 363 725 289 682 l 232 601 l 232 710 l 89 710 l 89 0 l 238 0 l 238 378 b 443 607 238 521 319 607 b 593 457 526 607 593 565 l 593 -136 l 579 -150 l 406 -150 l 406 -278 l 524 -278 b 742 -60 664 -278 742 -200 l 742 472 b 481 725 742 651 610 725 z "},"ñ":{"ha":826,"x_min":0,"x_max":0,"o":"m 318 864 b 504 799 382 864 414 799 b 674 947 607 799 663 872 l 674 968 l 571 968 b 503 908 564 932 544 908 b 317 972 440 908 407 972 b 147 825 214 972 160 899 l 147 804 l 251 804 b 318 864 257 840 278 864 z m 481 725 b 246 601 363 725 289 682 l 232 601 l 232 710 l 89 710 l 89 0 l 238 0 l 238 378 b 443 607 238 521 319 607 b 593 457 526 607 593 565 l 593 0 l 742 0 l 742 472 b 481 725 742 651 610 725 z "},"o":{"ha":824,"x_min":0,"x_max":0,"o":"m 49 354 b 413 -15 49 125 199 -15 b 776 354 625 -15 776 125 b 413 725 776 583 625 725 b 49 354 199 725 49 583 z m 199 354 b 413 604 199 513 279 604 b 625 354 544 604 625 513 b 413 106 625 197 544 106 b 199 354 279 106 199 197 z "},"ó":{"ha":824,"x_min":0,"x_max":0,"o":"m 440 806 l 588 979 l 588 1000 l 421 1000 l 311 826 l 311 806 z m 49 354 b 413 -15 49 125 199 -15 b 776 354 625 -15 776 125 b 413 725 776 583 625 725 b 49 354 199 725 49 583 z m 199 354 b 413 604 199 513 279 604 b 625 354 544 604 625 513 b 413 106 625 197 544 106 b 199 354 279 106 199 197 z "},"ô":{"ha":824,"x_min":0,"x_max":0,"o":"m 411 919 l 508 806 l 636 806 l 636 826 l 497 1000 l 326 1000 l 188 826 l 188 806 l 315 806 z m 413 725 b 49 354 199 725 49 583 b 413 -15 49 125 199 -15 b 776 354 625 -15 776 125 b 413 725 776 583 625 725 z m 413 106 b 199 354 279 106 199 197 b 413 604 199 513 279 604 b 625 354 544 604 625 513 b 413 106 625 197 544 106 z "},"ö":{"ha":824,"x_min":0,"x_max":0,"o":"m 185 976 l 185 819 l 360 819 l 360 976 z m 463 976 l 463 819 l 638 819 l 638 976 z m 49 354 b 413 -15 49 125 199 -15 b 776 354 625 -15 776 125 b 413 725 776 583 625 725 b 49 354 199 725 49 583 z m 199 354 b 413 604 199 513 279 604 b 625 354 544 604 625 513 b 413 106 625 197 544 106 b 199 354 279 106 199 197 z "},"ò":{"ha":824,"x_min":0,"x_max":0,"o":"m 379 806 l 508 806 l 508 826 l 399 1000 l 232 1000 l 232 979 z m 49 354 b 413 -15 49 125 199 -15 b 776 354 625 -15 776 125 b 413 725 776 583 625 725 b 49 354 199 725 49 583 z m 199 354 b 413 604 199 513 279 604 b 625 354 544 604 625 513 b 413 106 625 197 544 106 b 199 354 279 106 199 197 z "},"ő":{"ha":824,"x_min":0,"x_max":0,"o":"m 342 806 l 443 979 l 443 1000 l 285 1000 l 222 826 l 222 806 z m 567 806 l 694 979 l 694 1000 l 535 1000 l 439 826 l 439 806 z m 49 354 b 413 -15 49 125 199 -15 b 776 354 625 -15 776 125 b 413 725 776 583 625 725 b 49 354 199 725 49 583 z m 199 354 b 413 604 199 513 279 604 b 625 354 544 604 625 513 b 413 106 625 197 544 106 b 199 354 279 106 199 197 z "},"ō":{"ha":824,"x_min":0,"x_max":0,"o":"m 199 932 l 199 819 l 625 819 l 625 932 z m 49 354 b 413 -15 49 125 199 -15 b 776 354 625 -15 776 125 b 413 725 776 583 625 725 b 49 354 199 725 49 583 z m 199 354 b 413 604 199 513 279 604 b 625 354 544 604 625 513 b 413 106 625 197 544 106 b 199 354 279 106 199 197 z "},"ø":{"ha":824,"x_min":0,"x_max":0,"o":"m 679 621 l 738 689 l 738 710 l 675 710 l 633 660 b 413 725 574 703 497 725 b 49 354 199 725 49 583 b 146 89 49 243 85 153 l 88 21 l 88 0 l 150 0 l 192 49 b 413 -15 251 7 326 -15 b 776 354 625 -15 776 125 b 679 621 776 465 740 557 z m 199 354 b 413 604 199 513 279 604 b 547 560 467 604 513 589 l 238 196 b 199 354 213 236 199 290 z m 413 106 b 278 150 358 106 313 121 l 588 513 b 625 354 611 472 625 418 b 413 106 625 197 544 106 z "},"õ":{"ha":824,"x_min":0,"x_max":0,"o":"m 319 864 b 506 799 383 864 415 799 b 675 947 608 799 664 872 l 675 968 l 572 968 b 504 908 565 932 546 908 b 318 972 442 908 408 972 b 149 825 215 972 161 899 l 149 804 l 253 804 b 319 864 258 840 279 864 z m 413 725 b 49 354 199 725 49 583 b 413 -15 49 125 199 -15 b 776 354 625 -15 776 125 b 413 725 776 583 625 725 z m 413 106 b 199 354 279 106 199 197 b 413 604 199 513 279 604 b 625 354 544 604 625 513 b 413 106 625 197 544 106 z "},"œ":{"ha":1374,"x_min":0,"x_max":0,"o":"m 49 354 b 413 -15 49 125 199 -15 b 693 128 535 -15 635 38 l 707 128 b 990 -17 765 36 864 -17 b 1318 213 1193 -17 1294 106 l 1318 233 l 1175 233 b 989 104 1156 163 1103 104 b 782 313 861 104 786 192 l 1325 313 l 1325 382 b 986 725 1325 586 1194 725 b 708 581 864 725 767 672 l 694 581 b 413 725 635 672 535 725 b 49 354 199 725 49 583 z m 782 425 b 986 607 792 529 856 607 b 1176 425 1113 607 1174 528 z m 199 354 b 413 604 199 513 279 604 b 625 354 544 604 625 513 b 413 106 625 197 544 106 b 199 354 279 106 199 197 z "},"p":{"ha":853,"x_min":0,"x_max":0,"o":"m 89 710 l 89 -278 l 238 -278 l 238 75 l 251 75 b 465 -15 296 22 364 -15 b 804 354 651 -15 804 122 b 474 725 804 588 656 725 b 247 624 364 725 290 683 l 233 624 l 233 710 z m 228 354 b 440 604 228 514 311 604 b 653 354 569 604 653 514 b 440 106 653 196 569 106 b 228 354 311 106 228 196 z "},"þ":{"ha":853,"x_min":0,"x_max":0,"o":"m 89 1000 l 89 -278 l 238 -278 l 238 75 l 251 75 b 465 -15 296 22 364 -15 b 804 354 651 -15 804 122 b 465 725 804 588 651 725 b 251 633 364 725 296 688 l 238 633 l 238 1000 z m 228 354 b 440 604 228 514 311 604 b 653 354 569 604 653 514 b 440 106 653 196 569 106 b 228 354 311 106 228 196 z "},"q":{"ha":853,"x_min":0,"x_max":0,"o":"m 49 354 b 386 -15 49 122 201 -15 b 601 75 489 -15 557 22 l 615 75 l 615 -278 l 763 -278 l 763 710 l 649 710 l 621 626 l 607 626 b 383 725 563 685 492 725 b 49 354 196 725 49 588 z m 199 354 b 413 604 199 514 283 604 b 625 354 540 604 625 514 b 413 106 625 196 540 106 b 199 354 283 106 199 196 z "},"r":{"ha":518,"x_min":0,"x_max":0,"o":"m 89 710 l 89 0 l 238 0 l 238 383 b 418 585 238 511 278 585 l 494 585 l 494 713 l 425 713 b 246 613 329 713 269 676 l 232 613 l 232 710 z "},"ŕ":{"ha":518,"x_min":0,"x_max":0,"o":"m 314 806 l 461 979 l 461 1000 l 294 1000 l 185 826 l 185 806 z m 89 710 l 89 0 l 238 0 l 238 383 b 418 585 238 511 278 585 l 494 585 l 494 713 l 425 713 b 246 613 329 713 269 676 l 232 613 l 232 710 z "},"ř":{"ha":518,"x_min":0,"x_max":0,"o":"m 383 1000 l 286 886 l 190 1000 l 63 1000 l 63 979 l 201 806 l 372 806 l 511 979 l 511 1000 z m 246 613 l 232 613 l 232 710 l 89 710 l 89 0 l 238 0 l 238 383 b 418 585 238 511 278 585 l 494 585 l 494 713 l 425 713 b 246 613 329 713 269 676 z "},"ŗ":{"ha":518,"x_min":0,"x_max":0,"o":"m 425 713 b 246 613 329 713 269 676 l 232 613 l 232 710 l 89 710 l 89 0 l 238 0 l 238 383 b 418 585 238 511 278 585 l 494 585 l 494 713 z m 68 -232 l 167 -232 l 167 -247 b 75 -329 167 -306 139 -329 l 44 -329 l 44 -410 l 82 -410 b 258 -244 193 -410 258 -358 l 258 -72 l 68 -72 z "},"s":{"ha":732,"x_min":0,"x_max":0,"o":"m 69 510 b 269 313 69 382 158 332 l 414 288 b 543 200 485 275 543 260 b 375 101 543 139 482 101 b 179 243 258 101 186 149 l 35 243 l 35 222 b 374 -15 49 88 163 -15 b 688 208 572 -15 688 78 b 457 408 688 335 586 385 l 313 433 b 214 515 256 443 214 461 b 371 610 214 568 268 610 b 539 483 474 610 535 569 l 682 483 l 682 504 b 371 725 665 633 563 725 b 69 510 183 725 69 631 z "},"ś":{"ha":732,"x_min":0,"x_max":0,"o":"m 397 806 l 544 979 l 544 1000 l 378 1000 l 268 826 l 268 806 z m 69 510 b 269 313 69 382 158 332 l 414 288 b 543 200 485 275 543 260 b 375 101 543 139 482 101 b 179 243 258 101 186 149 l 35 243 l 35 222 b 374 -15 49 88 163 -15 b 688 208 572 -15 688 78 b 457 408 688 335 586 385 l 313 433 b 214 515 256 443 214 461 b 371 610 214 568 268 610 b 539 483 474 610 535 569 l 682 483 l 682 504 b 371 725 665 633 563 725 b 69 510 183 725 69 631 z "},"š":{"ha":732,"x_min":0,"x_max":0,"o":"m 285 806 l 456 806 l 594 979 l 594 1000 l 467 1000 l 369 886 l 274 1000 l 146 1000 l 146 979 z m 457 408 l 313 433 b 214 515 256 443 214 461 b 371 610 214 568 268 610 b 539 483 474 610 535 569 l 682 483 l 682 504 b 371 725 665 633 563 725 b 69 510 183 725 69 631 b 269 313 69 382 158 332 l 414 288 b 543 200 485 275 543 260 b 375 101 543 139 482 101 b 179 243 258 101 186 149 l 35 243 l 35 222 b 374 -15 49 88 163 -15 b 688 208 572 -15 688 78 b 457 408 688 335 586 385 z "},"ş":{"ha":732,"x_min":0,"x_max":0,"o":"m 688 208 b 457 408 688 335 586 385 l 313 433 b 214 515 256 443 214 461 b 371 610 214 568 268 610 b 539 483 474 610 535 569 l 682 483 l 682 504 b 371 725 665 633 563 725 b 69 510 183 725 69 631 b 269 313 69 382 158 332 l 414 288 b 543 200 485 275 543 260 b 375 101 543 139 482 101 b 179 243 258 101 186 149 l 35 243 l 35 222 b 322 -12 47 99 144 3 l 306 -101 l 306 -122 l 396 -122 b 447 -161 431 -122 447 -137 b 385 -206 447 -185 425 -206 b 233 -151 324 -206 278 -179 l 213 -151 l 213 -249 b 386 -292 243 -264 304 -292 b 554 -161 488 -292 554 -239 b 419 -60 554 -85 488 -56 l 397 -61 l 408 -14 b 688 208 585 -4 688 86 z "},"ș":{"ha":732,"x_min":0,"x_max":0,"o":"m 457 408 l 313 433 b 214 515 256 443 214 461 b 371 610 214 568 268 610 b 539 483 474 610 535 569 l 682 483 l 682 504 b 371 725 665 633 563 725 b 69 510 183 725 69 631 b 269 313 69 382 158 332 l 414 288 b 543 200 485 275 543 260 b 375 101 543 139 482 101 b 179 243 258 101 186 149 l 35 243 l 35 222 b 374 -15 49 88 163 -15 b 688 208 572 -15 688 78 b 457 408 688 335 586 385 z m 274 -232 l 372 -232 l 372 -247 b 281 -329 372 -306 344 -329 l 250 -329 l 250 -410 l 288 -410 b 464 -244 399 -410 464 -358 l 464 -72 l 274 -72 z "},"ß":{"ha":867,"x_min":0,"x_max":0,"o":"m 89 0 l 238 0 l 238 653 b 446 897 238 836 351 897 b 585 792 526 897 585 857 b 483 658 585 728 538 696 b 390 519 421 617 390 582 b 514 369 390 454 429 415 l 574 338 b 689 210 631 306 689 281 b 565 103 689 144 638 103 b 436 206 496 103 443 139 l 292 206 l 292 185 b 565 -17 304 69 407 -17 b 836 211 724 -17 836 78 b 636 456 836 343 739 401 l 574 489 b 538 529 551 500 538 508 b 564 567 538 547 546 556 b 732 799 660 629 732 679 b 447 1017 732 932 601 1017 b 89 650 244 1017 89 888 z "},"t":{"ha":563,"x_min":0,"x_max":0,"o":"m 11 710 l 11 596 l 171 596 l 171 178 b 349 0 171 67 238 0 l 528 0 l 528 118 l 332 118 l 319 131 l 319 596 l 510 596 l 510 710 l 319 710 l 319 953 l 299 953 l 171 858 l 171 710 z "},"ŧ":{"ha":586,"x_min":0,"x_max":0,"o":"m 350 118 l 338 131 l 338 332 l 528 332 l 528 388 l 338 388 l 338 596 l 528 596 l 528 710 l 338 710 l 338 953 l 317 953 l 190 858 l 190 710 l 29 710 l 29 596 l 190 596 l 190 388 l 29 388 l 29 332 l 190 332 l 190 178 b 367 0 190 67 256 0 l 544 0 l 544 118 z "},"ť":{"ha":564,"x_min":0,"x_max":0,"o":"m 499 813 l 558 1053 l 558 1074 l 421 1074 l 406 833 l 406 813 z m 11 710 l 11 596 l 171 596 l 171 178 b 349 0 171 67 238 0 l 529 0 l 529 118 l 332 118 l 319 131 l 319 596 l 510 596 l 510 710 l 319 710 l 319 953 l 299 953 l 171 858 l 171 710 z "},"ţ":{"ha":563,"x_min":0,"x_max":0,"o":"m 399 -60 l 376 -61 l 390 0 l 528 0 l 528 118 l 332 118 l 319 131 l 319 596 l 510 596 l 510 710 l 319 710 l 319 953 l 299 953 l 171 858 l 171 710 l 11 710 l 11 596 l 171 596 l 171 178 b 307 3 171 82 221 18 l 285 -101 l 285 -122 l 375 -122 b 426 -161 410 -122 426 -137 b 364 -206 426 -185 406 -206 b 214 -151 304 -206 258 -179 l 193 -151 l 193 -249 b 365 -292 224 -264 283 -292 b 535 -161 467 -292 535 -239 b 399 -60 535 -85 467 -56 z "},"ț":{"ha":563,"x_min":0,"x_max":0,"o":"m 332 118 l 319 131 l 319 596 l 510 596 l 510 710 l 319 710 l 319 953 l 299 953 l 171 858 l 171 710 l 11 710 l 11 596 l 171 596 l 171 178 b 349 0 171 67 238 0 l 528 0 l 528 118 z m 250 -232 l 349 -232 l 349 -247 b 257 -329 349 -306 321 -329 l 226 -329 l 226 -410 l 264 -410 b 440 -244 375 -410 440 -358 l 440 -72 l 250 -72 z "},"u":{"ha":826,"x_min":0,"x_max":0,"o":"m 86 710 l 86 236 b 347 -15 86 58 217 -15 b 581 107 465 -15 539 28 l 594 107 l 594 0 l 738 0 l 738 710 l 589 710 l 589 331 b 385 104 589 189 507 104 b 233 251 300 104 233 144 l 233 710 z "},"ú":{"ha":826,"x_min":0,"x_max":0,"o":"m 436 806 l 583 979 l 583 1000 l 417 1000 l 307 826 l 307 806 z m 86 710 l 86 236 b 347 -15 86 58 217 -15 b 581 107 465 -15 539 28 l 594 107 l 594 0 l 738 0 l 738 710 l 589 710 l 589 331 b 385 104 589 189 507 104 b 233 251 300 104 233 144 l 233 710 z "},"û":{"ha":826,"x_min":0,"x_max":0,"o":"m 407 919 l 504 806 l 632 806 l 632 826 l 493 1000 l 322 1000 l 183 826 l 183 806 l 311 806 z m 589 710 l 589 331 b 385 104 589 189 507 104 b 233 251 300 104 233 144 l 233 710 l 86 710 l 86 236 b 347 -15 86 58 217 -15 b 581 107 465 -15 539 28 l 594 107 l 594 0 l 738 0 l 738 710 z "},"ü":{"ha":826,"x_min":0,"x_max":0,"o":"m 182 976 l 182 819 l 357 819 l 357 976 z m 460 976 l 460 819 l 635 819 l 635 976 z m 86 710 l 86 236 b 347 -15 86 58 217 -15 b 581 107 465 -15 539 28 l 594 107 l 594 0 l 738 0 l 738 710 l 589 710 l 589 331 b 385 104 589 189 507 104 b 233 251 300 104 233 144 l 233 710 z "},"ù":{"ha":826,"x_min":0,"x_max":0,"o":"m 376 806 l 506 806 l 506 826 l 396 1000 l 229 1000 l 229 979 z m 86 710 l 86 236 b 347 -15 86 58 217 -15 b 581 107 465 -15 539 28 l 594 107 l 594 0 l 738 0 l 738 710 l 589 710 l 589 331 b 385 104 589 189 507 104 b 233 251 300 104 233 144 l 233 710 z "},"ű":{"ha":826,"x_min":0,"x_max":0,"o":"m 339 806 l 440 979 l 440 1000 l 282 1000 l 219 826 l 219 806 z m 564 806 l 692 979 l 692 1000 l 532 1000 l 436 826 l 436 806 z m 86 710 l 86 236 b 347 -15 86 58 217 -15 b 581 107 465 -15 539 28 l 594 107 l 594 0 l 738 0 l 738 710 l 589 710 l 589 331 b 385 104 589 189 507 104 b 233 251 300 104 233 144 l 233 710 z "},"ū":{"ha":826,"x_min":0,"x_max":0,"o":"m 194 932 l 194 819 l 621 819 l 621 932 z m 86 710 l 86 236 b 347 -15 86 58 217 -15 b 581 107 465 -15 539 28 l 594 107 l 594 0 l 738 0 l 738 710 l 589 710 l 589 331 b 385 104 589 189 507 104 b 233 251 300 104 233 144 l 233 710 z "},"ų":{"ha":826,"x_min":0,"x_max":0,"o":"m 738 0 l 738 710 l 589 710 l 589 331 b 385 104 589 189 507 104 b 233 251 300 104 233 144 l 233 710 l 86 710 l 86 236 b 347 -15 86 58 217 -15 b 581 107 465 -15 539 28 l 594 107 l 594 -10 b 476 -164 549 -32 476 -74 b 625 -296 476 -246 543 -296 b 738 -268 681 -296 717 -279 l 738 -185 l 717 -185 b 654 -201 701 -193 682 -201 b 586 -137 615 -201 586 -174 b 738 0 586 -78 638 -42 z "},"ů":{"ha":826,"x_min":0,"x_max":0,"o":"m 408 775 b 543 899 483 775 543 826 b 408 1022 543 971 483 1022 b 274 899 333 1022 274 971 b 408 775 274 826 333 775 z m 408 846 b 354 899 378 846 354 867 b 408 950 354 931 378 950 b 463 899 439 950 463 931 b 408 846 463 867 439 846 z m 86 710 l 86 236 b 347 -15 86 58 217 -15 b 581 107 465 -15 539 28 l 594 107 l 594 0 l 738 0 l 738 710 l 589 710 l 589 331 b 385 104 589 189 507 104 b 233 251 300 104 233 144 l 233 710 z "},"v":{"ha":738,"x_min":0,"x_max":0,"o":"m 14 710 l 14 689 l 290 0 l 447 0 l 724 689 l 724 710 l 571 710 l 375 188 l 361 188 l 165 710 z "},"w":{"ha":1072,"x_min":0,"x_max":0,"o":"m 28 710 l 28 689 l 210 0 l 382 0 l 529 518 l 543 518 l 690 0 l 863 0 l 1046 689 l 1046 710 l 899 710 l 776 190 l 763 190 l 614 710 l 460 710 l 311 190 l 297 190 l 175 710 z "},"ẃ":{"ha":1072,"x_min":0,"x_max":0,"o":"m 565 806 l 713 979 l 713 1000 l 546 1000 l 436 826 l 436 806 z m 28 710 l 28 689 l 210 0 l 382 0 l 529 518 l 543 518 l 690 0 l 863 0 l 1046 689 l 1046 710 l 899 710 l 776 190 l 763 190 l 614 710 l 460 710 l 311 190 l 297 190 l 175 710 z "},"ŵ":{"ha":1072,"x_min":0,"x_max":0,"o":"m 536 919 l 633 806 l 761 806 l 761 826 l 622 1000 l 451 1000 l 313 826 l 313 806 l 440 806 z m 899 710 l 776 190 l 763 190 l 614 710 l 460 710 l 311 190 l 297 190 l 175 710 l 28 710 l 28 689 l 210 0 l 382 0 l 529 518 l 543 518 l 690 0 l 863 0 l 1046 689 l 1046 710 z "},"ẅ":{"ha":1072,"x_min":0,"x_max":0,"o":"m 311 976 l 311 819 l 486 819 l 486 976 z m 589 976 l 589 819 l 764 819 l 764 976 z m 28 710 l 28 689 l 210 0 l 382 0 l 529 518 l 543 518 l 690 0 l 863 0 l 1046 689 l 1046 710 l 899 710 l 776 190 l 763 190 l 614 710 l 460 710 l 311 190 l 297 190 l 175 710 z "},"ẁ":{"ha":1072,"x_min":0,"x_max":0,"o":"m 504 806 l 633 806 l 633 826 l 524 1000 l 357 1000 l 357 979 z m 28 710 l 28 689 l 210 0 l 382 0 l 529 518 l 543 518 l 690 0 l 863 0 l 1046 689 l 1046 710 l 899 710 l 776 190 l 763 190 l 614 710 l 460 710 l 311 190 l 297 190 l 175 710 z "},"x":{"ha":785,"x_min":0,"x_max":0,"o":"m 63 710 l 63 689 l 290 369 l 24 21 l 24 0 l 182 0 l 381 267 l 394 267 l 576 0 l 735 0 l 735 21 l 494 358 l 747 689 l 747 710 l 589 710 l 404 461 l 390 461 l 221 710 z "},"y":{"ha":758,"x_min":0,"x_max":0,"o":"m 21 710 l 21 689 l 308 -31 l 258 -150 l 243 -160 l 57 -160 l 57 -278 l 201 -278 b 413 -142 322 -278 374 -235 l 744 689 l 744 710 l 593 710 l 390 169 l 376 169 l 174 710 z "},"ý":{"ha":758,"x_min":0,"x_max":0,"o":"m 411 806 l 558 979 l 558 1000 l 392 1000 l 282 826 l 282 806 z m 21 710 l 21 689 l 308 -31 l 258 -150 l 243 -160 l 57 -160 l 57 -278 l 201 -278 b 413 -142 322 -278 374 -235 l 744 689 l 744 710 l 593 710 l 390 169 l 376 169 l 174 710 z "},"ŷ":{"ha":758,"x_min":0,"x_max":0,"o":"m 382 919 l 479 806 l 607 806 l 607 826 l 468 1000 l 297 1000 l 158 826 l 158 806 l 286 806 z m 593 710 l 390 169 l 376 169 l 174 710 l 21 710 l 21 689 l 308 -31 l 258 -150 l 243 -160 l 57 -160 l 57 -278 l 201 -278 b 413 -142 322 -278 374 -235 l 744 689 l 744 710 z "},"ÿ":{"ha":758,"x_min":0,"x_max":0,"o":"m 157 976 l 157 819 l 332 819 l 332 976 z m 435 976 l 435 819 l 610 819 l 610 976 z m 21 710 l 21 689 l 308 -31 l 258 -150 l 243 -160 l 57 -160 l 57 -278 l 201 -278 b 413 -142 322 -278 374 -235 l 744 689 l 744 710 l 593 710 l 390 169 l 376 169 l 174 710 z "},"ỳ":{"ha":758,"x_min":0,"x_max":0,"o":"m 351 806 l 481 806 l 481 826 l 371 1000 l 204 1000 l 204 979 z m 21 710 l 21 689 l 308 -31 l 258 -150 l 243 -160 l 57 -160 l 57 -278 l 201 -278 b 413 -142 322 -278 374 -235 l 744 689 l 744 710 l 593 710 l 390 169 l 376 169 l 174 710 z "},"z":{"ha":700,"x_min":0,"x_max":0,"o":"m 65 710 l 65 590 l 444 590 l 51 104 l 51 0 l 649 0 l 649 122 l 242 122 l 633 607 l 633 710 z "},"ź":{"ha":700,"x_min":0,"x_max":0,"o":"m 375 806 l 522 979 l 522 1000 l 356 1000 l 246 826 l 246 806 z m 65 710 l 65 590 l 444 590 l 51 104 l 51 0 l 649 0 l 649 122 l 242 122 l 633 607 l 633 710 z "},"ž":{"ha":700,"x_min":0,"x_max":0,"o":"m 261 806 l 432 806 l 571 979 l 571 1000 l 443 1000 l 346 886 l 250 1000 l 122 1000 l 122 979 z m 242 122 l 633 607 l 633 710 l 65 710 l 65 590 l 444 590 l 51 104 l 51 0 l 649 0 l 649 122 z "},"ż":{"ha":700,"x_min":0,"x_max":0,"o":"m 254 976 l 254 819 l 442 819 l 442 976 z m 65 710 l 65 590 l 444 590 l 51 104 l 51 0 l 649 0 l 649 122 l 242 122 l 633 607 l 633 710 z "},"ẞ":{"ha":942,"x_min":0,"x_max":0,"o":"m 96 0 l 257 0 l 257 642 b 467 869 257 821 364 869 l 636 869 l 482 692 b 408 543 433 636 408 599 b 538 382 408 467 453 422 l 618 344 b 731 224 679 315 731 289 b 606 114 731 157 678 114 b 468 219 526 114 476 156 l 311 219 l 311 199 b 606 -17 329 78 438 -17 b 890 229 779 -17 890 88 b 686 472 890 368 782 426 l 615 506 b 564 556 583 519 564 531 b 589 606 564 575 574 586 l 839 899 l 839 1000 l 467 1000 b 96 639 261 1000 96 875 z "},"ﬁ":{"ha":826,"x_min":0,"x_max":0,"o":"m 11 596 l 174 596 l 174 0 l 322 0 l 322 596 l 589 596 l 589 0 l 738 0 l 738 710 l 322 710 l 322 875 l 333 886 l 611 886 l 611 1000 l 367 1000 b 174 811 244 1000 174 929 l 174 710 l 11 710 z "},"ﬂ":{"ha":838,"x_min":0,"x_max":0,"o":"m 11 596 l 174 596 l 174 0 l 322 0 l 322 596 l 486 596 l 486 710 l 322 710 l 322 875 l 333 886 l 510 886 l 510 1000 l 367 1000 b 174 811 244 1000 174 929 l 174 710 l 11 710 z m 600 0 l 747 0 l 747 1000 l 600 1000 z "},"⁄":{"ha":1204,"x_min":0,"x_max":0,"o":"m 982 1000 l 56 21 l 56 0 l 222 0 l 1149 979 l 1149 1000 z "},".":{"ha":326,"x_min":0,"x_max":0,"o":"m 65 175 l 65 0 l 261 0 l 261 175 z "},",":{"ha":329,"x_min":0,"x_max":0,"o":"m 68 175 l 68 0 l 172 0 l 172 -26 b 71 -114 172 -87 150 -114 l 47 -114 l 47 -196 l 74 -196 b 264 -24 203 -196 264 -144 l 264 175 z "},":":{"ha":326,"x_min":0,"x_max":0,"o":"m 65 713 l 65 538 l 261 538 l 261 713 z m 65 175 l 65 0 l 261 0 l 261 175 z "},";":{"ha":329,"x_min":0,"x_max":0,"o":"m 68 713 l 68 538 l 264 538 l 264 713 z m 68 0 l 172 0 l 172 -26 b 71 -114 172 -87 150 -114 l 47 -114 l 47 -196 l 74 -196 b 264 -24 203 -196 264 -144 l 264 175 l 68 175 z "},"…":{"ha":878,"x_min":0,"x_max":0,"o":"m 65 175 l 65 0 l 261 0 l 261 175 z m 340 175 l 340 0 l 538 0 l 538 175 z m 617 175 l 617 0 l 813 0 l 813 175 z "},"!":{"ha":375,"x_min":0,"x_max":0,"o":"m 110 1000 l 110 710 l 136 288 l 236 288 l 263 710 l 263 1000 z m 89 175 l 89 0 l 286 0 l 286 175 z "},"¡":{"ha":375,"x_min":0,"x_max":0,"o":"m 89 535 l 286 535 l 286 710 l 89 710 z m 110 -278 l 263 -278 l 263 0 l 236 422 l 136 422 l 110 0 z "},"?":{"ha":775,"x_min":0,"x_max":0,"o":"m 181 697 b 396 892 185 840 281 892 b 585 746 511 892 585 832 b 447 574 585 664 533 629 l 408 549 b 310 375 333 501 310 463 l 310 342 l 324 279 l 443 279 l 457 342 l 457 413 l 464 425 l 557 486 b 735 744 647 546 735 608 b 396 1017 735 901 601 1017 b 35 718 192 1017 43 906 l 35 697 z m 286 175 l 286 0 l 482 0 l 482 175 z "},"¿":{"ha":775,"x_min":0,"x_max":0,"o":"m 489 535 l 489 710 l 293 710 l 293 535 z m 594 25 b 379 -169 590 -118 496 -169 b 190 -24 264 -169 190 -110 b 329 149 190 58 243 93 l 368 174 b 465 347 442 221 465 260 l 465 368 l 451 431 l 332 431 l 318 368 l 318 310 l 311 297 l 218 236 b 42 -22 128 176 42 114 b 379 -294 42 -179 174 -294 b 742 4 585 -294 732 -183 l 742 25 z "},"·":{"ha":326,"x_min":0,"x_max":0,"o":"m 65 471 l 65 296 l 261 296 l 261 471 z "},"•":{"ha":861,"x_min":0,"x_max":0,"o":"m 431 -17 b 803 354 650 -17 803 135 b 431 726 803 576 650 726 b 58 354 211 726 58 576 b 431 -17 58 135 211 -17 z "},"*":{"ha":710,"x_min":0,"x_max":0,"o":"m 315 1000 l 315 979 l 339 788 l 325 785 l 249 961 l 239 979 l 171 940 l 182 922 l 297 768 l 288 760 l 133 874 l 115 885 l 76 817 l 94 807 l 271 731 l 267 718 l 76 740 l 56 740 l 56 661 l 76 661 l 268 685 l 271 672 l 94 596 l 76 586 l 115 517 l 133 528 l 289 643 l 297 635 l 182 479 l 171 461 l 239 422 l 249 440 l 325 618 l 339 614 l 315 422 l 315 401 l 394 401 l 394 422 l 371 614 l 383 618 l 460 440 l 469 422 l 539 461 l 528 479 l 413 635 l 421 643 l 576 528 l 594 517 l 633 586 l 615 596 l 438 672 l 442 685 l 633 661 l 654 661 l 654 740 l 633 740 l 442 717 l 438 731 l 615 807 l 633 817 l 594 885 l 576 874 l 421 758 l 413 768 l 528 922 l 539 940 l 469 979 l 460 961 l 383 785 l 371 788 l 394 979 l 394 1000 z "},"#":{"ha":1061,"x_min":0,"x_max":0,"o":"m 1006 590 l 1006 714 l 822 714 l 899 979 l 899 1000 l 750 1000 l 668 714 l 517 714 l 593 979 l 593 1000 l 446 1000 l 363 714 l 56 714 l 56 590 l 328 590 l 275 410 l 56 410 l 56 286 l 239 286 l 163 21 l 163 0 l 310 0 l 393 286 l 544 286 l 467 21 l 467 0 l 615 0 l 699 286 l 1006 286 l 1006 410 l 733 410 l 786 590 z m 582 407 l 425 407 l 479 593 l 636 593 z "},"/":{"ha":849,"x_min":0,"x_max":0,"o":"m 639 1000 l 56 21 l 56 0 l 210 0 l 793 979 l 793 1000 z "},"\\":{"ha":849,"x_min":0,"x_max":0,"o":"m 210 1000 l 56 1000 l 56 979 l 639 0 l 793 0 l 793 21 z "},"(":{"ha":499,"x_min":0,"x_max":0,"o":"m 469 1056 l 469 1069 l 324 1069 b 72 396 192 949 72 750 b 324 -278 72 42 192 -157 l 469 -278 l 469 -264 b 225 396 311 -112 225 82 b 469 1056 225 710 311 904 z "},")":{"ha":504,"x_min":0,"x_max":0,"o":"m 182 1069 l 35 1069 l 35 1056 b 281 396 193 904 281 710 b 35 -264 281 82 193 -112 l 35 -278 l 182 -278 b 432 396 313 -157 432 42 b 182 1069 432 750 313 949 z "},"{":{"ha":540,"x_min":0,"x_max":0,"o":"m 42 343 b 197 222 139 343 197 326 l 197 -132 b 357 -278 197 -236 260 -278 l 499 -278 l 499 -169 l 357 -169 l 346 -158 l 346 228 b 217 389 346 314 296 371 l 217 403 b 346 564 296 421 346 478 l 346 950 l 357 961 l 499 961 l 499 1069 l 357 1069 b 197 924 260 1069 197 1028 l 197 569 b 42 449 197 465 139 449 z "},"}":{"ha":540,"x_min":0,"x_max":0,"o":"m 499 343 l 499 449 b 343 569 401 449 343 465 l 343 924 b 183 1069 343 1028 281 1069 l 42 1069 l 42 961 l 183 961 l 194 950 l 194 564 b 324 403 194 478 244 421 l 324 389 b 194 228 244 371 194 314 l 194 -158 l 183 -169 l 42 -169 l 42 -278 l 183 -278 b 343 -132 281 -278 343 -236 l 343 222 b 499 343 343 326 401 343 z "},"[":{"ha":446,"x_min":0,"x_max":0,"o":"m 103 1069 l 103 -278 l 404 -278 l 404 -169 l 251 -169 l 251 961 l 404 961 l 404 1069 z "},"]":{"ha":446,"x_min":0,"x_max":0,"o":"m 343 1069 l 42 1069 l 42 961 l 194 961 l 194 -169 l 42 -169 l 42 -278 l 343 -278 z "},"-":{"ha":543,"x_min":0,"x_max":0,"o":"m 83 414 l 83 290 l 460 290 l 460 414 z "},"–":{"ha":846,"x_min":0,"x_max":0,"o":"m 83 414 l 83 290 l 763 290 l 763 414 z "},"—":{"ha":1265,"x_min":0,"x_max":0,"o":"m 83 414 l 83 290 l 1182 290 l 1182 414 z "},"_":{"ha":778,"x_min":0,"x_max":0,"o":"m 56 -54 l 56 -179 l 722 -179 l 722 -54 z "},"‚":{"ha":329,"x_min":0,"x_max":0,"o":"m 68 175 l 68 0 l 172 0 l 172 -26 b 71 -114 172 -87 150 -114 l 47 -114 l 47 -196 l 74 -196 b 264 -24 203 -196 264 -144 l 264 175 z "},"„":{"ha":588,"x_min":0,"x_max":0,"o":"m 68 0 l 172 0 l 172 -26 b 71 -114 172 -87 150 -114 l 47 -114 l 47 -196 l 74 -196 b 264 -24 203 -196 264 -144 l 264 175 l 68 175 z m 326 175 l 326 0 l 431 0 l 431 -26 b 329 -114 431 -87 408 -114 l 306 -114 l 306 -196 l 332 -196 b 522 -24 461 -196 522 -144 l 522 175 z "},"“":{"ha":588,"x_min":0,"x_max":0,"o":"m 65 946 l 65 749 l 261 749 l 261 924 l 157 924 l 157 950 b 258 1038 157 1011 179 1038 l 282 1038 l 282 1119 l 256 1119 b 65 946 126 1119 65 1067 z m 517 1038 l 540 1038 l 540 1119 l 514 1119 b 324 946 385 1119 324 1067 l 324 749 l 519 749 l 519 924 l 415 924 l 415 950 b 517 1038 415 1011 438 1038 z "},"”":{"ha":588,"x_min":0,"x_max":0,"o":"m 68 825 l 172 825 l 172 799 b 71 711 172 738 150 711 l 47 711 l 47 629 l 74 629 b 264 801 203 629 264 681 l 264 1000 l 68 1000 z m 326 1000 l 326 825 l 431 825 l 431 799 b 329 711 431 738 408 711 l 306 711 l 306 629 l 332 629 b 522 801 461 629 522 681 l 522 1000 z "},"‘":{"ha":329,"x_min":0,"x_max":0,"o":"m 258 1038 l 282 1038 l 282 1119 l 256 1119 b 65 946 126 1119 65 1067 l 65 749 l 261 749 l 261 924 l 157 924 l 157 950 b 258 1038 157 1011 179 1038 z "},"’":{"ha":329,"x_min":0,"x_max":0,"o":"m 68 1004 l 68 829 l 172 829 l 172 803 b 71 714 172 740 150 714 l 47 714 l 47 633 l 74 633 b 264 806 203 633 264 685 l 264 1004 z "},"«":{"ha":681,"x_min":0,"x_max":0,"o":"m 221 117 l 367 117 l 367 138 l 189 357 l 367 575 l 367 596 l 221 596 l 35 367 l 35 347 z m 467 117 l 611 117 l 611 138 l 433 357 l 611 575 l 611 596 l 467 596 l 281 367 l 281 347 z "},"»":{"ha":681,"x_min":0,"x_max":0,"o":"m 215 117 l 401 347 l 401 367 l 215 596 l 69 596 l 69 575 l 247 357 l 69 138 l 69 117 z m 460 117 l 646 347 l 646 367 l 460 596 l 315 596 l 315 575 l 493 357 l 315 138 l 315 117 z "},"‹":{"ha":436,"x_min":0,"x_max":0,"o":"m 221 117 l 367 117 l 367 138 l 189 357 l 367 575 l 367 596 l 221 596 l 35 367 l 35 347 z "},"›":{"ha":436,"x_min":0,"x_max":0,"o":"m 215 117 l 401 347 l 401 367 l 215 596 l 69 596 l 69 575 l 247 357 l 69 138 l 69 117 z "},"\"":{"ha":588,"x_min":0,"x_max":0,"o":"m 68 825 l 172 825 l 172 799 b 71 711 172 738 150 711 l 47 711 l 47 629 l 74 629 b 264 801 203 629 264 681 l 264 1000 l 68 1000 z m 326 1000 l 326 825 l 431 825 l 431 799 b 329 711 431 738 408 711 l 306 711 l 306 629 l 332 629 b 522 801 461 629 522 681 l 522 1000 z "},"'":{"ha":329,"x_min":0,"x_max":0,"o":"m 68 1000 l 68 825 l 172 825 l 172 799 b 71 711 172 738 150 711 l 47 711 l 47 629 l 74 629 b 264 801 203 629 264 681 l 264 1000 z "},"₿":{"ha":946,"x_min":0,"x_max":0,"o":"m 890 274 b 703 514 890 403 817 483 l 703 528 b 876 751 811 560 876 639 b 631 997 876 896 776 981 l 631 1153 l 497 1153 l 497 1000 l 421 1000 l 421 1153 l 288 1153 l 288 1000 l 103 1000 l 103 0 l 288 0 l 288 -160 l 421 -160 l 421 0 l 497 0 l 497 -160 l 631 -160 l 631 4 b 890 274 781 25 890 125 z m 263 874 l 547 874 b 718 724 651 874 718 831 b 547 574 718 618 651 574 l 263 574 z m 542 128 l 263 128 l 263 447 l 542 447 b 731 288 650 447 731 401 b 542 128 731 174 650 128 z "},"¢":{"ha":785,"x_min":0,"x_max":0,"o":"m 608 254 b 421 106 594 176 546 106 b 199 354 286 106 199 192 b 418 604 199 518 286 604 b 599 469 539 604 583 542 l 740 469 l 740 490 b 485 722 721 593 644 699 l 485 858 l 343 858 l 343 721 b 49 354 165 692 49 558 b 343 -11 49 151 165 18 l 343 -153 l 485 -153 l 485 -12 b 750 233 649 13 729 124 l 750 254 z "},"¤":{"ha":969,"x_min":0,"x_max":0,"o":"m 863 356 b 790 572 863 436 835 511 l 928 708 l 839 797 l 700 660 b 485 728 638 703 564 728 b 269 660 407 728 332 703 l 131 797 l 42 708 l 179 572 b 106 356 133 511 106 436 b 179 138 106 274 133 199 l 42 1 l 131 -86 l 269 51 b 485 -17 332 8 407 -17 b 700 51 564 -17 638 8 l 839 -86 l 928 1 l 789 139 b 863 356 835 200 863 275 z m 485 113 b 247 356 346 113 247 210 b 485 599 247 501 346 599 b 722 356 624 599 722 501 b 485 113 722 210 624 113 z "},"$":{"ha":946,"x_min":0,"x_max":0,"o":"m 872 290 b 558 564 872 467 738 529 l 428 590 b 239 738 304 615 239 646 b 467 893 239 833 333 893 b 708 690 603 893 706 838 l 868 690 l 868 711 b 539 1014 853 885 733 993 l 539 1153 l 397 1153 l 397 1015 b 79 729 200 994 79 883 b 360 454 79 567 185 490 l 489 429 b 714 272 626 401 714 375 b 468 110 714 174 622 110 b 190 338 311 110 203 188 l 31 338 l 31 317 b 397 -15 49 140 172 7 l 397 -160 l 539 -160 l 539 -14 b 872 290 754 7 872 129 z "},"€":{"ha":1150,"x_min":0,"x_max":0,"o":"m 944 342 b 651 111 918 217 842 111 b 329 351 497 111 375 196 l 603 351 l 617 443 l 617 464 l 311 464 b 310 500 310 475 310 488 b 311 547 310 517 310 532 l 632 547 l 646 639 l 646 660 l 332 660 b 654 890 381 808 497 890 b 931 665 828 890 915 790 l 1092 665 l 1092 686 b 656 1018 1071 829 942 1018 b 169 660 432 1018 232 894 l 44 660 l 31 568 l 31 547 l 151 547 b 150 500 150 532 150 517 b 151 464 150 488 150 476 l 14 464 l 0 372 l 0 351 l 167 351 b 651 -18 225 110 426 -18 b 1106 321 924 -18 1074 147 l 1106 342 z "},"ƒ":{"ha":654,"x_min":0,"x_max":0,"o":"m 457 872 l 654 872 l 654 1000 l 451 1000 b 288 839 347 1000 296 943 l 274 679 l 72 679 l 72 551 l 263 551 l 201 -139 l 190 -150 l -7 -150 l -7 -278 l 196 -278 b 360 -122 300 -278 350 -226 l 418 551 l 622 551 l 622 679 l 431 679 l 446 861 z "},"£":{"ha":858,"x_min":0,"x_max":0,"o":"m 343 431 l 522 431 l 522 546 l 322 546 l 310 614 b 485 886 274 807 363 886 b 665 704 599 886 661 818 l 824 704 b 485 1017 817 910 675 1017 b 151 608 286 1017 100 882 l 163 546 l 54 546 l 54 431 l 185 431 b 86 113 210 282 200 193 l 86 0 l 817 0 l 817 129 l 260 129 b 343 431 353 193 369 279 z "},"¥":{"ha":949,"x_min":0,"x_max":0,"o":"m 943 1000 l 772 1000 l 482 524 l 468 524 l 178 1000 l 7 1000 l 7 979 l 351 431 l 154 431 l 154 375 l 394 375 l 394 271 l 154 271 l 154 215 l 394 215 l 394 0 l 554 0 l 554 215 l 794 215 l 794 271 l 554 271 l 554 375 l 794 375 l 794 431 l 597 431 l 943 979 z "},"+":{"ha":949,"x_min":0,"x_max":0,"o":"m 813 428 l 540 428 l 540 700 l 407 700 l 407 428 l 136 428 l 136 294 l 407 294 l 407 24 l 540 24 l 540 294 l 813 294 z "},"−":{"ha":949,"x_min":0,"x_max":0,"o":"m 140 428 l 140 294 l 808 294 l 808 428 z "},"×":{"ha":949,"x_min":0,"x_max":0,"o":"m 794 593 l 706 682 l 474 450 l 242 682 l 154 593 l 386 361 l 154 129 l 242 42 l 474 274 l 706 42 l 794 129 l 563 361 z "},"÷":{"ha":949,"x_min":0,"x_max":0,"o":"m 376 700 l 376 525 l 572 525 l 572 700 z m 140 428 l 140 294 l 808 294 l 808 428 z m 376 199 l 376 24 l 572 24 l 572 199 z "},"=":{"ha":949,"x_min":0,"x_max":0,"o":"m 140 547 l 140 414 l 808 414 l 808 547 z m 140 310 l 140 176 l 808 176 l 808 310 z "},"≠":{"ha":949,"x_min":0,"x_max":0,"o":"m 808 414 l 808 547 l 626 547 l 732 717 l 732 738 l 674 738 l 554 547 l 140 547 l 140 414 l 472 414 l 407 310 l 140 310 l 140 176 l 324 176 l 217 6 l 217 -15 l 275 -15 l 394 176 l 808 176 l 808 310 l 478 310 l 543 414 z "},">":{"ha":949,"x_min":0,"x_max":0,"o":"m 150 72 l 171 72 l 811 306 l 811 417 l 171 650 l 150 650 l 150 519 l 599 368 l 599 354 l 150 203 z "},"<":{"ha":949,"x_min":0,"x_max":0,"o":"m 797 72 l 797 203 l 350 354 l 350 368 l 797 519 l 797 650 l 776 650 l 136 417 l 136 306 l 776 72 z "},"≥":{"ha":949,"x_min":0,"x_max":0,"o":"m 150 218 l 171 218 l 811 451 l 811 563 l 171 796 l 150 796 l 150 665 l 599 514 l 599 500 l 150 349 z m 150 133 l 150 0 l 811 0 l 811 133 z "},"≤":{"ha":949,"x_min":0,"x_max":0,"o":"m 797 218 l 797 349 l 350 500 l 350 514 l 797 665 l 797 796 l 776 796 l 136 563 l 136 451 l 776 218 z m 797 133 l 136 133 l 136 0 l 797 0 z "},"±":{"ha":949,"x_min":0,"x_max":0,"o":"m 540 592 l 540 838 l 407 838 l 407 592 l 136 592 l 136 458 l 408 458 l 408 211 l 540 211 l 540 458 l 813 458 l 813 592 z m 136 0 l 813 0 l 813 133 l 136 133 z "},"≈":{"ha":949,"x_min":0,"x_max":0,"o":"m 815 578 l 815 599 l 693 599 b 613 515 690 549 667 515 b 338 613 524 515 472 613 b 132 410 221 613 140 542 l 132 389 l 254 389 b 336 474 257 439 282 474 b 611 375 425 474 475 375 b 815 578 728 375 808 446 z m 815 313 l 815 333 l 693 333 b 613 250 690 283 667 250 b 338 347 524 250 472 347 b 132 146 221 347 140 278 l 132 125 l 254 125 b 336 208 257 175 282 208 b 611 111 425 208 475 111 b 815 313 728 111 808 181 z "},"~":{"ha":949,"x_min":0,"x_max":0,"o":"m 815 453 l 815 474 l 693 474 b 606 381 690 418 664 381 b 335 488 518 381 468 488 b 132 271 218 488 140 413 l 132 250 l 254 250 b 342 342 257 306 283 342 b 614 236 431 342 481 236 b 815 453 729 236 808 311 z "},"^":{"ha":729,"x_min":0,"x_max":0,"o":"m 668 528 l 668 549 l 415 1000 l 314 1000 l 63 549 l 63 528 l 200 528 l 358 832 l 372 832 l 531 528 z "},"∅":{"ha":926,"x_min":0,"x_max":0,"o":"m 913 711 l 819 806 l 675 661 b 464 728 614 703 540 728 b 85 356 256 728 85 568 b 157 143 85 276 111 203 l 14 0 l 108 -94 l 253 50 b 464 -17 314 8 388 -17 b 842 356 671 -17 842 143 b 769 568 842 435 815 508 z m 225 356 b 464 600 225 501 324 600 b 582 568 507 600 547 589 l 253 239 b 225 356 235 274 225 313 z m 701 356 b 464 111 701 210 603 111 b 346 143 421 111 381 122 l 674 472 b 701 356 692 438 701 397 z "},"%":{"ha":1368,"x_min":0,"x_max":0,"o":"m 354 553 b 596 786 492 553 596 654 b 354 1018 596 919 492 1018 b 111 786 215 1018 111 919 b 354 553 111 654 215 553 z m 1058 1000 l 132 21 l 132 0 l 299 0 l 1225 979 l 1225 1000 z m 354 668 b 238 786 285 668 238 718 b 354 903 238 854 285 903 b 469 786 422 903 469 854 b 354 668 469 718 422 668 z m 1014 -18 b 1257 214 1153 -18 1257 82 b 1014 447 1257 347 1153 447 b 772 214 876 447 772 347 b 1014 -18 772 82 876 -18 z m 1014 97 b 899 214 944 97 899 147 b 1014 332 899 283 944 332 b 1131 214 1083 332 1131 283 b 1014 97 1131 147 1083 97 z "},"‰":{"ha":1740,"x_min":0,"x_max":0,"o":"m 111 786 b 354 553 111 654 215 553 b 596 786 492 553 596 654 b 354 1018 596 919 492 1018 b 111 786 215 1018 111 919 z m 132 0 l 299 0 l 1225 979 l 1225 1000 l 1058 1000 l 132 21 z m 238 786 b 354 903 238 854 285 903 b 469 786 422 903 469 854 b 354 668 469 718 422 668 b 238 786 285 668 238 718 z m 772 214 b 1010 -18 772 82 874 -18 b 1193 72 1085 -18 1150 15 l 1207 72 b 1390 -18 1250 15 1315 -18 b 1629 214 1526 -18 1629 82 b 1390 447 1629 347 1526 447 b 1207 357 1315 447 1249 414 l 1193 357 b 1010 447 1151 414 1085 447 b 772 214 874 447 772 347 z m 899 214 b 1014 332 899 283 944 332 b 1131 214 1083 332 1131 283 b 1014 97 1131 147 1083 97 b 899 214 944 97 899 147 z m 1271 214 b 1386 332 1271 283 1317 332 b 1503 214 1456 332 1503 283 b 1386 97 1503 147 1456 97 b 1271 214 1317 97 1271 147 z "},"↑":{"ha":924,"x_min":0,"x_max":0,"o":"m 35 599 l 122 511 l 392 781 l 392 0 l 533 0 l 533 779 l 801 511 l 889 599 l 471 1018 l 453 1018 z "},"↗":{"ha":888,"x_min":0,"x_max":0,"o":"m 35 43 l 135 -56 l 674 485 l 674 106 l 799 106 l 799 699 l 788 710 l 194 710 l 194 585 l 576 585 z "},"→":{"ha":1110,"x_min":0,"x_max":0,"o":"m 49 283 l 838 283 l 569 15 l 657 -74 l 1076 346 l 1076 363 l 657 782 l 569 694 l 839 425 l 49 425 z "},"↘":{"ha":888,"x_min":0,"x_max":0,"o":"m 35 665 l 576 125 l 194 125 l 194 0 l 788 0 l 799 11 l 799 604 l 674 604 l 674 225 l 135 765 z "},"↓":{"ha":924,"x_min":0,"x_max":0,"o":"m 35 401 l 453 -18 l 471 -18 l 889 401 l 801 489 l 533 221 l 533 1000 l 392 1000 l 392 219 l 122 489 z "},"↙":{"ha":888,"x_min":0,"x_max":0,"o":"m 854 665 l 754 765 l 214 225 l 214 604 l 89 604 l 89 11 l 100 0 l 693 0 l 693 125 l 311 125 z "},"←":{"ha":1110,"x_min":0,"x_max":0,"o":"m 1063 283 l 1063 425 l 271 425 l 542 694 l 453 782 l 35 363 l 35 346 l 453 -74 l 542 15 l 272 283 z "},"↖":{"ha":888,"x_min":0,"x_max":0,"o":"m 854 43 l 311 585 l 693 585 l 693 710 l 100 710 l 89 699 l 89 106 l 214 106 l 214 485 l 754 -56 z "},"↔":{"ha":1201,"x_min":0,"x_max":0,"o":"m 35 346 l 453 -74 l 542 15 l 272 283 l 929 283 l 661 15 l 749 -74 l 1168 346 l 1168 363 l 749 782 l 661 694 l 931 425 l 271 425 l 542 694 l 453 782 l 35 363 z "},"↕":{"ha":853,"x_min":0,"x_max":0,"o":"m 35 360 l 418 -18 l 435 -18 l 819 360 l 731 447 l 497 221 l 497 779 l 731 553 l 819 640 l 435 1018 l 418 1018 l 35 640 l 122 553 l 357 781 l 357 219 l 122 447 z "},"█":{"ha":889,"x_min":0,"x_max":0,"o":"m 111 996 l 111 4 l 115 0 l 774 0 l 778 4 l 778 996 l 774 1000 l 115 1000 z "},"▒":{"ha":889,"x_min":0,"x_max":0,"o":"m 111 996 l 111 949 l 115 944 l 163 944 l 167 949 l 167 996 l 163 1000 l 115 1000 z m 222 996 l 222 949 l 226 944 l 274 944 l 278 949 l 278 996 l 274 1000 l 226 1000 z m 333 996 l 333 949 l 338 944 l 385 944 l 389 949 l 389 996 l 385 1000 l 338 1000 z m 444 996 l 444 949 l 449 944 l 496 944 l 500 949 l 500 996 l 496 1000 l 449 1000 z m 556 996 l 556 949 l 560 944 l 607 944 l 611 949 l 611 996 l 607 1000 l 560 1000 z m 667 996 l 667 949 l 671 944 l 718 944 l 722 949 l 722 996 l 718 1000 l 671 1000 z m 167 940 l 167 893 l 171 889 l 218 889 l 222 893 l 222 940 l 218 944 l 171 944 z m 278 940 l 278 893 l 282 889 l 329 889 l 333 893 l 333 940 l 329 944 l 282 944 z m 389 940 l 389 893 l 393 889 l 440 889 l 444 893 l 444 940 l 440 944 l 393 944 z m 500 940 l 500 893 l 504 889 l 551 889 l 556 893 l 556 940 l 551 944 l 504 944 z m 611 940 l 611 893 l 615 889 l 663 889 l 667 893 l 667 940 l 663 944 l 615 944 z m 722 940 l 722 893 l 726 889 l 774 889 l 778 893 l 778 940 l 774 944 l 726 944 z m 111 885 l 111 838 l 115 833 l 163 833 l 167 838 l 167 885 l 163 889 l 115 889 z m 222 885 l 222 838 l 226 833 l 274 833 l 278 838 l 278 885 l 274 889 l 226 889 z m 333 885 l 333 838 l 338 833 l 385 833 l 389 838 l 389 885 l 385 889 l 338 889 z m 444 885 l 444 838 l 449 833 l 496 833 l 500 838 l 500 885 l 496 889 l 449 889 z m 556 885 l 556 838 l 560 833 l 607 833 l 611 838 l 611 885 l 607 889 l 560 889 z m 667 885 l 667 838 l 671 833 l 718 833 l 722 838 l 722 885 l 718 889 l 671 889 z m 167 829 l 167 782 l 171 778 l 218 778 l 222 782 l 222 829 l 218 833 l 171 833 z m 278 829 l 278 782 l 282 778 l 329 778 l 333 782 l 333 829 l 329 833 l 282 833 z m 389 829 l 389 782 l 393 778 l 440 778 l 444 782 l 444 829 l 440 833 l 393 833 z m 500 829 l 500 782 l 504 778 l 551 778 l 556 782 l 556 829 l 551 833 l 504 833 z m 611 829 l 611 782 l 615 778 l 663 778 l 667 782 l 667 829 l 663 833 l 615 833 z m 722 829 l 722 782 l 726 778 l 774 778 l 778 782 l 778 829 l 774 833 l 726 833 z m 111 774 l 111 726 l 115 722 l 163 722 l 167 726 l 167 774 l 163 778 l 115 778 z m 222 774 l 222 726 l 226 722 l 274 722 l 278 726 l 278 774 l 274 778 l 226 778 z m 333 774 l 333 726 l 338 722 l 385 722 l 389 726 l 389 774 l 385 778 l 338 778 z m 444 774 l 444 726 l 449 722 l 496 722 l 500 726 l 500 774 l 496 778 l 449 778 z m 556 774 l 556 726 l 560 722 l 607 722 l 611 726 l 611 774 l 607 778 l 560 778 z m 667 774 l 667 726 l 671 722 l 718 722 l 722 726 l 722 774 l 718 778 l 671 778 z m 167 718 l 167 671 l 171 667 l 218 667 l 222 671 l 222 718 l 218 722 l 171 722 z m 278 718 l 278 671 l 282 667 l 329 667 l 333 671 l 333 718 l 329 722 l 282 722 z m 389 718 l 389 671 l 393 667 l 440 667 l 444 671 l 444 718 l 440 722 l 393 722 z m 500 718 l 500 671 l 504 667 l 551 667 l 556 671 l 556 718 l 551 722 l 504 722 z m 611 718 l 611 671 l 615 667 l 663 667 l 667 671 l 667 718 l 663 722 l 615 722 z m 722 718 l 722 671 l 726 667 l 774 667 l 778 671 l 778 718 l 774 722 l 726 722 z m 111 663 l 111 615 l 115 611 l 163 611 l 167 615 l 167 663 l 163 667 l 115 667 z m 222 663 l 222 615 l 226 611 l 274 611 l 278 615 l 278 663 l 274 667 l 226 667 z m 333 663 l 333 615 l 338 611 l 385 611 l 389 615 l 389 663 l 385 667 l 338 667 z m 444 663 l 444 615 l 449 611 l 496 611 l 500 615 l 500 663 l 496 667 l 449 667 z m 556 663 l 556 615 l 560 611 l 607 611 l 611 615 l 611 663 l 607 667 l 560 667 z m 667 663 l 667 615 l 671 611 l 718 611 l 722 615 l 722 663 l 718 667 l 671 667 z m 167 607 l 167 560 l 171 556 l 218 556 l 222 560 l 222 607 l 218 611 l 171 611 z m 278 607 l 278 560 l 282 556 l 329 556 l 333 560 l 333 607 l 329 611 l 282 611 z m 389 607 l 389 560 l 393 556 l 440 556 l 444 560 l 444 607 l 440 611 l 393 611 z m 500 607 l 500 560 l 504 556 l 551 556 l 556 560 l 556 607 l 551 611 l 504 611 z m 611 607 l 611 560 l 615 556 l 663 556 l 667 560 l 667 607 l 663 611 l 615 611 z m 722 607 l 722 560 l 726 556 l 774 556 l 778 560 l 778 607 l 774 611 l 726 611 z m 111 551 l 111 504 l 115 500 l 163 500 l 167 504 l 167 551 l 163 556 l 115 556 z m 222 551 l 222 504 l 226 500 l 274 500 l 278 504 l 278 551 l 274 556 l 226 556 z m 333 551 l 333 504 l 338 500 l 385 500 l 389 504 l 389 551 l 385 556 l 338 556 z m 444 551 l 444 504 l 449 500 l 496 500 l 500 504 l 500 551 l 496 556 l 449 556 z m 556 551 l 556 504 l 560 500 l 607 500 l 611 504 l 611 551 l 607 556 l 560 556 z m 667 551 l 667 504 l 671 500 l 718 500 l 722 504 l 722 551 l 718 556 l 671 556 z m 167 496 l 167 449 l 171 444 l 218 444 l 222 449 l 222 496 l 218 500 l 171 500 z m 278 496 l 278 449 l 282 444 l 329 444 l 333 449 l 333 496 l 329 500 l 282 500 z m 389 496 l 389 449 l 393 444 l 440 444 l 444 449 l 444 496 l 440 500 l 393 500 z m 500 496 l 500 449 l 504 444 l 551 444 l 556 449 l 556 496 l 551 500 l 504 500 z m 611 496 l 611 449 l 615 444 l 663 444 l 667 449 l 667 496 l 663 500 l 615 500 z m 722 496 l 722 449 l 726 444 l 774 444 l 778 449 l 778 496 l 774 500 l 726 500 z m 111 440 l 111 393 l 115 389 l 163 389 l 167 393 l 167 440 l 163 444 l 115 444 z m 222 440 l 222 393 l 226 389 l 274 389 l 278 393 l 278 440 l 274 444 l 226 444 z m 333 440 l 333 393 l 338 389 l 385 389 l 389 393 l 389 440 l 385 444 l 338 444 z m 444 440 l 444 393 l 449 389 l 496 389 l 500 393 l 500 440 l 496 444 l 449 444 z m 556 440 l 556 393 l 560 389 l 607 389 l 611 393 l 611 440 l 607 444 l 560 444 z m 667 440 l 667 393 l 671 389 l 718 389 l 722 393 l 722 440 l 718 444 l 671 444 z m 167 385 l 167 338 l 171 333 l 218 333 l 222 338 l 222 385 l 218 389 l 171 389 z m 278 385 l 278 338 l 282 333 l 329 333 l 333 338 l 333 385 l 329 389 l 282 389 z m 389 385 l 389 338 l 393 333 l 440 333 l 444 338 l 444 385 l 440 389 l 393 389 z m 500 385 l 500 338 l 504 333 l 551 333 l 556 338 l 556 385 l 551 389 l 504 389 z m 611 385 l 611 338 l 615 333 l 663 333 l 667 338 l 667 385 l 663 389 l 615 389 z m 722 385 l 722 338 l 726 333 l 774 333 l 778 338 l 778 385 l 774 389 l 726 389 z m 111 329 l 111 282 l 115 278 l 163 278 l 167 282 l 167 329 l 163 333 l 115 333 z m 222 329 l 222 282 l 226 278 l 274 278 l 278 282 l 278 329 l 274 333 l 226 333 z m 333 329 l 333 282 l 338 278 l 385 278 l 389 282 l 389 329 l 385 333 l 338 333 z m 444 329 l 444 282 l 449 278 l 496 278 l 500 282 l 500 329 l 496 333 l 449 333 z m 556 329 l 556 282 l 560 278 l 607 278 l 611 282 l 611 329 l 607 333 l 560 333 z m 667 329 l 667 282 l 671 278 l 718 278 l 722 282 l 722 329 l 718 333 l 671 333 z m 167 274 l 167 226 l 171 222 l 218 222 l 222 226 l 222 274 l 218 278 l 171 278 z m 278 274 l 278 226 l 282 222 l 329 222 l 333 226 l 333 274 l 329 278 l 282 278 z m 389 274 l 389 226 l 393 222 l 440 222 l 444 226 l 444 274 l 440 278 l 393 278 z m 500 274 l 500 226 l 504 222 l 551 222 l 556 226 l 556 274 l 551 278 l 504 278 z m 611 274 l 611 226 l 615 222 l 663 222 l 667 226 l 667 274 l 663 278 l 615 278 z m 722 274 l 722 226 l 726 222 l 774 222 l 778 226 l 778 274 l 774 278 l 726 278 z m 111 218 l 111 171 l 115 167 l 163 167 l 167 171 l 167 218 l 163 222 l 115 222 z m 222 218 l 222 171 l 226 167 l 274 167 l 278 171 l 278 218 l 274 222 l 226 222 z m 333 218 l 333 171 l 338 167 l 385 167 l 389 171 l 389 218 l 385 222 l 338 222 z m 444 218 l 444 171 l 449 167 l 496 167 l 500 171 l 500 218 l 496 222 l 449 222 z m 556 218 l 556 171 l 560 167 l 607 167 l 611 171 l 611 218 l 607 222 l 560 222 z m 667 218 l 667 171 l 671 167 l 718 167 l 722 171 l 722 218 l 718 222 l 671 222 z m 167 163 l 167 115 l 171 111 l 218 111 l 222 115 l 222 163 l 218 167 l 171 167 z m 278 163 l 278 115 l 282 111 l 329 111 l 333 115 l 333 163 l 329 167 l 282 167 z m 389 163 l 389 115 l 393 111 l 440 111 l 444 115 l 444 163 l 440 167 l 393 167 z m 500 163 l 500 115 l 504 111 l 551 111 l 556 115 l 556 163 l 551 167 l 504 167 z m 611 163 l 611 115 l 615 111 l 663 111 l 667 115 l 667 163 l 663 167 l 615 167 z m 722 163 l 722 115 l 726 111 l 774 111 l 778 115 l 778 163 l 774 167 l 726 167 z m 111 107 l 111 60 l 115 56 l 163 56 l 167 60 l 167 107 l 163 111 l 115 111 z m 222 107 l 222 60 l 226 56 l 274 56 l 278 60 l 278 107 l 274 111 l 226 111 z m 333 107 l 333 60 l 338 56 l 385 56 l 389 60 l 389 107 l 385 111 l 338 111 z m 444 107 l 444 60 l 449 56 l 496 56 l 500 60 l 500 107 l 496 111 l 449 111 z m 556 107 l 556 60 l 560 56 l 607 56 l 611 60 l 611 107 l 607 111 l 560 111 z m 667 107 l 667 60 l 671 56 l 718 56 l 722 60 l 722 107 l 718 111 l 671 111 z m 167 51 l 167 4 l 171 0 l 218 0 l 222 4 l 222 51 l 218 56 l 171 56 z m 278 51 l 278 4 l 282 0 l 329 0 l 333 4 l 333 51 l 329 56 l 282 56 z m 389 51 l 389 4 l 393 0 l 440 0 l 444 4 l 444 51 l 440 56 l 393 56 z m 500 51 l 500 4 l 504 0 l 551 0 l 556 4 l 556 51 l 551 56 l 504 56 z m 611 51 l 611 4 l 615 0 l 663 0 l 667 4 l 667 51 l 663 56 l 615 56 z m 722 51 l 722 4 l 726 0 l 774 0 l 778 4 l 778 51 l 774 56 l 726 56 z "},"◊":{"ha":847,"x_min":0,"x_max":0,"o":"m 489 1000 l 358 1000 l 28 507 l 28 493 l 358 0 l 489 0 l 819 492 l 819 507 z m 431 154 l 417 154 l 193 500 l 417 846 l 431 846 l 654 500 z "},"@":{"ha":1536,"x_min":0,"x_max":0,"o":"m 111 367 b 796 -287 111 -47 418 -287 b 1253 -140 1032 -287 1174 -207 l 1253 -126 l 1175 -28 l 1161 -28 b 799 -147 1104 -78 989 -147 b 260 367 508 -147 260 33 b 785 881 260 700 506 881 b 1275 415 1056 881 1275 700 b 1158 169 1275 243 1214 169 b 1099 225 1119 169 1099 186 l 1099 692 l 985 692 l 961 618 l 947 618 b 742 708 910 664 846 708 b 432 368 574 708 432 589 b 742 28 432 147 574 28 b 965 139 864 28 931 85 l 979 139 b 1156 44 1007 75 1075 44 b 1425 415 1297 44 1425 174 b 785 1018 1425 781 1147 1018 b 111 367 414 1018 111 781 z m 583 368 b 768 586 583 514 660 586 b 954 368 878 586 954 514 b 768 150 954 222 878 150 b 583 368 660 150 583 222 z "},"&":{"ha":1082,"x_min":0,"x_max":0,"o":"m 1019 529 l 1019 550 l 861 550 l 692 319 l 493 519 l 500 522 b 710 783 631 589 710 660 b 438 1018 710 910 604 1018 b 149 775 275 1018 149 919 b 264 547 149 683 194 622 b 83 274 172 490 83 406 b 413 -18 83 100 221 -18 b 704 108 549 -18 636 36 l 746 67 b 915 0 797 15 836 0 l 1019 0 l 1019 128 l 893 128 l 876 135 l 793 218 b 800 228 796 221 797 225 z m 432 890 b 553 782 500 890 553 849 b 432 636 553 715 508 675 l 394 618 b 306 774 342 669 306 710 b 432 890 306 853 364 890 z m 417 113 b 242 278 318 113 242 175 b 360 451 242 369 299 417 l 606 207 b 417 113 551 147 499 113 z "},"¶":{"ha":1067,"x_min":0,"x_max":0,"o":"m 83 715 b 388 432 83 550 218 432 l 438 432 l 438 0 l 596 0 l 596 876 l 718 876 l 718 0 l 878 0 l 878 876 l 1011 876 l 1011 1000 l 388 1000 b 83 715 218 1000 83 882 z "},"§":{"ha":824,"x_min":0,"x_max":0,"o":"m 49 431 b 282 189 49 301 146 235 l 418 142 b 556 19 500 115 556 92 b 410 -92 556 -43 501 -92 b 246 51 321 -92 257 -43 l 90 51 l 90 31 b 410 -217 111 -114 229 -217 b 713 28 596 -217 713 -115 b 658 167 713 86 693 133 l 658 181 b 775 371 707 208 775 265 b 540 613 775 500 678 567 l 404 660 b 268 782 324 686 268 710 b 413 894 268 844 321 894 b 572 760 503 894 567 849 l 724 760 l 724 781 b 413 1018 710 917 597 1018 b 111 774 228 1018 111 917 b 164 633 111 715 131 669 l 164 619 b 49 431 117 593 49 536 z m 192 458 b 265 563 192 514 225 546 l 490 485 b 632 343 581 453 632 418 b 558 240 632 288 599 256 l 333 317 b 192 458 243 349 192 383 z "},"©":{"ha":1143,"x_min":0,"x_max":0,"o":"m 572 1017 b 56 500 278 1017 56 793 b 572 -17 56 207 278 -17 b 1089 500 865 -17 1089 207 b 572 1017 1089 793 865 1017 z m 572 39 b 114 500 308 39 114 238 b 572 961 114 763 308 961 b 1031 500 835 961 1031 763 b 572 39 1031 238 835 39 z m 583 279 b 381 501 465 279 381 364 b 583 724 381 639 465 724 b 747 592 679 724 735 664 l 803 592 l 803 613 b 583 779 786 700 711 779 b 322 501 431 779 322 664 b 583 224 322 339 431 224 b 810 396 711 224 792 304 l 810 417 l 754 417 b 583 279 739 335 683 279 z "},"®":{"ha":1143,"x_min":0,"x_max":0,"o":"m 572 1017 b 56 500 278 1017 56 793 b 572 -17 56 207 278 -17 b 1089 500 865 -17 1089 207 b 572 1017 1089 793 865 1017 z m 572 39 b 114 500 308 39 114 238 b 572 961 114 763 308 961 b 1031 500 835 961 1031 763 b 572 39 1031 238 835 39 z m 800 617 b 642 772 800 713 736 772 l 389 772 l 389 231 l 447 231 l 447 461 l 588 461 l 707 231 l 764 231 l 764 251 l 653 461 b 800 617 742 467 800 525 z m 629 517 l 447 517 l 447 717 l 629 717 b 742 617 700 717 742 682 b 629 517 742 551 700 517 z "},"™":{"ha":1219,"x_min":0,"x_max":0,"o":"m 56 944 l 253 944 l 253 514 l 314 514 l 314 944 l 510 944 l 510 1000 l 56 1000 z m 572 514 l 633 514 l 633 910 l 647 910 l 819 514 l 889 514 l 1061 910 l 1075 910 l 1075 514 l 1136 514 l 1136 1000 l 1035 1000 l 861 592 l 847 592 l 672 1000 l 572 1000 z "},"°":{"ha":596,"x_min":0,"x_max":0,"o":"m 299 553 b 540 786 436 553 540 654 b 299 1018 540 919 436 1018 b 56 786 160 1018 56 919 b 299 553 56 654 160 553 z m 299 668 b 182 786 229 668 182 718 b 299 903 182 854 229 903 b 414 786 367 903 414 854 b 299 668 414 718 367 668 z "},"′":{"ha":294,"x_min":0,"x_max":0,"o":"m 182 646 l 247 979 l 247 1000 l 93 1000 l 76 667 l 76 646 z "},"″":{"ha":518,"x_min":0,"x_max":0,"o":"m 182 646 l 247 979 l 247 1000 l 93 1000 l 76 667 l 76 646 z m 404 646 l 469 979 l 469 1000 l 317 1000 l 299 667 l 299 646 z "},"|":{"ha":371,"x_min":0,"x_max":0,"o":"m 111 1000 l 111 -278 l 260 -278 l 260 1000 z "},"¦":{"ha":371,"x_min":0,"x_max":0,"o":"m 111 558 l 260 558 l 260 1000 l 111 1000 z m 111 -278 l 260 -278 l 260 164 l 111 164 z "},"†":{"ha":829,"x_min":0,"x_max":0,"o":"m 568 710 l 485 703 l 493 814 l 493 1000 l 338 1000 l 338 814 l 346 703 l 261 710 l 71 710 l 71 585 l 261 585 l 346 590 l 338 444 l 338 0 l 493 0 l 493 444 l 485 590 l 568 585 l 760 585 l 760 710 z "},"‡":{"ha":829,"x_min":0,"x_max":0,"o":"m 760 585 l 760 710 l 568 710 l 485 703 l 493 814 l 493 1000 l 338 1000 l 338 814 l 346 703 l 261 710 l 71 710 l 71 585 l 261 585 l 346 590 l 338 444 l 338 264 l 347 118 l 261 125 l 71 125 l 71 0 l 261 0 l 346 7 l 338 -106 l 338 -278 l 493 -278 l 493 -106 l 485 7 l 568 0 l 760 0 l 760 125 l 568 125 l 483 118 l 493 264 l 493 444 l 485 590 l 568 585 z "},"␠":{"ha":778,"x_min":0,"x_max":0,"o":"m 171 0 l 49 0 l 49 -214 l 729 -214 l 729 0 l 607 0 l 607 -97 l 171 -97 z "},"̈":{"ha":0,"x_min":0,"x_max":0,"o":"m -511 976 l -511 819 l -336 819 l -336 976 z m -233 976 l -233 819 l -58 819 l -58 976 z "},"̇":{"ha":0,"x_min":0,"x_max":0,"o":"m -244 976 l -244 819 l -57 819 l -57 976 z "},"̀":{"ha":0,"x_min":0,"x_max":0,"o":"m -211 806 l -82 806 l -82 826 l -192 1000 l -358 1000 l -358 979 z "},"́":{"ha":0,"x_min":0,"x_max":0,"o":"m -222 806 l -75 979 l -75 1000 l -242 1000 l -351 826 l -351 806 z "},"̋":{"ha":0,"x_min":0,"x_max":0,"o":"m -408 806 l -307 979 l -307 1000 l -465 1000 l -528 826 l -528 806 z m -183 806 l -56 979 l -56 1000 l -215 1000 l -311 826 l -311 806 z "},"̂":{"ha":0,"x_min":0,"x_max":0,"o":"m -208 1000 l -379 1000 l -518 826 l -518 806 l -390 806 l -294 919 l -197 806 l -69 806 l -69 826 z "},"̌":{"ha":0,"x_min":0,"x_max":0,"o":"m -196 1000 l -293 886 l -389 1000 l -517 1000 l -517 979 l -378 806 l -207 806 l -68 979 l -68 1000 z "},"̆":{"ha":0,"x_min":0,"x_max":0,"o":"m -183 1000 b -286 903 -186 943 -217 903 b -389 1000 -356 903 -386 943 l -501 1000 l -501 979 b -286 793 -494 886 -428 793 b -69 979 -143 793 -78 886 l -69 1000 z "},"̊":{"ha":0,"x_min":0,"x_max":0,"o":"m -215 775 b -81 899 -140 775 -81 826 b -215 1022 -81 971 -140 1022 b -350 899 -290 1022 -350 971 b -215 775 -350 826 -290 775 z m -215 846 b -269 899 -246 846 -269 867 b -215 950 -269 931 -246 950 b -161 899 -185 950 -161 931 b -215 846 -161 867 -185 846 z "},"̃":{"ha":0,"x_min":0,"x_max":0,"o":"m -167 968 b -235 908 -174 932 -193 908 b -421 972 -297 908 -331 972 b -590 825 -524 972 -578 899 l -590 804 l -486 804 b -419 864 -481 840 -460 864 b -233 799 -356 864 -324 799 b -64 947 -131 799 -75 872 l -64 968 z "},"̄":{"ha":0,"x_min":0,"x_max":0,"o":"m -478 932 l -478 819 l -51 819 l -51 932 z "},"̒":{"ha":0,"x_min":0,"x_max":0,"o":"m -58 1072 l -29 1072 l -29 1154 l -65 1154 b -242 989 -176 1154 -242 1101 l -242 815 l -51 815 l -51 976 l -150 976 l -150 990 b -58 1072 -150 1049 -121 1072 z "},"̦":{"ha":0,"x_min":0,"x_max":0,"o":"m -243 -72 l -243 -232 l -144 -232 l -144 -247 b -236 -329 -144 -306 -172 -329 l -267 -329 l -267 -410 l -229 -410 b -53 -244 -118 -410 -53 -358 l -53 -72 z "},"̧":{"ha":0,"x_min":0,"x_max":0,"o":"m -281 0 l -300 -101 l -300 -122 l -210 -122 b -158 -161 -175 -122 -158 -137 b -221 -206 -158 -185 -181 -206 b -372 -151 -282 -206 -328 -179 l -393 -151 l -393 -249 b -219 -292 -362 -264 -301 -292 b -51 -161 -118 -292 -51 -239 b -186 -60 -51 -85 -118 -56 l -208 -61 l -194 0 z "},"̨":{"ha":0,"x_min":0,"x_max":0,"o":"m -97 -268 l -97 -185 l -118 -185 b -179 -201 -133 -193 -153 -201 b -247 -137 -218 -201 -247 -174 b -97 0 -247 -78 -197 -42 l -219 0 b -358 -167 -281 -25 -358 -71 b -210 -296 -358 -246 -290 -296 b -97 -268 -154 -296 -118 -279 z "},"̵":{"ha":0,"x_min":0,"x_max":0,"o":"m -510 15 l -510 -83 l -44 -83 l -44 15 z "},"̶":{"ha":0,"x_min":0,"x_max":0,"o":"m -1094 99 l -1094 0 l -72 0 l -72 99 z "},"̷":{"ha":0,"x_min":0,"x_max":0,"o":"m -528 90 l -528 -36 l -500 -36 l -54 208 l -54 333 l -82 333 z "},"̸":{"ha":0,"x_min":0,"x_max":0,"o":"m -147 710 l -735 21 l -735 0 l -672 0 l -85 689 l -85 710 z "},"´":{"ha":497,"x_min":0,"x_max":0,"o":"m 240 806 l 386 979 l 386 1000 l 221 1000 l 111 826 l 111 806 z "},"˘":{"ha":665,"x_min":0,"x_max":0,"o":"m 435 1000 b 332 903 432 943 401 903 b 229 1000 263 903 232 943 l 117 1000 l 117 979 b 332 793 124 886 190 793 b 549 979 475 793 540 886 l 549 1000 z "},"ˇ":{"ha":671,"x_min":0,"x_max":0,"o":"m 432 1000 l 336 886 l 239 1000 l 111 1000 l 111 979 l 250 806 l 421 806 l 560 979 l 560 1000 z "},"¸":{"ha":526,"x_min":0,"x_max":0,"o":"m 214 0 l 194 -101 l 194 -122 l 285 -122 b 336 -161 319 -122 336 -137 b 274 -206 336 -185 315 -206 b 124 -151 214 -206 168 -179 l 103 -151 l 103 -249 b 275 -292 133 -264 193 -292 b 443 -161 376 -292 443 -239 b 308 -60 443 -85 376 -56 l 286 -61 l 300 0 z "},"ˆ":{"ha":671,"x_min":0,"x_max":0,"o":"m 421 1000 l 250 1000 l 111 826 l 111 806 l 239 806 l 336 919 l 432 806 l 560 806 l 560 826 z "},"¨":{"ha":696,"x_min":0,"x_max":0,"o":"m 118 976 l 118 819 l 293 819 l 293 976 z m 396 976 l 396 819 l 571 819 l 571 976 z "},"˙":{"ha":410,"x_min":0,"x_max":0,"o":"m 99 976 l 99 819 l 285 819 l 285 976 z "},"`":{"ha":497,"x_min":0,"x_max":0,"o":"m 257 806 l 386 806 l 386 826 l 278 1000 l 111 1000 l 111 979 z "},"˝":{"ha":713,"x_min":0,"x_max":0,"o":"m 240 806 l 342 979 l 342 1000 l 183 1000 l 119 826 l 119 806 z m 465 806 l 593 979 l 593 1000 l 432 1000 l 336 826 l 336 806 z "},"¯":{"ha":640,"x_min":0,"x_max":0,"o":"m 107 932 l 107 819 l 533 819 l 533 932 z "},"˛":{"ha":499,"x_min":0,"x_max":0,"o":"m 365 -268 l 365 -185 l 344 -185 b 283 -201 329 -193 310 -201 b 215 -137 244 -201 215 -174 b 365 0 215 -78 265 -42 l 243 0 b 104 -167 182 -25 104 -71 b 253 -296 104 -246 172 -296 b 365 -268 308 -296 344 -279 z "},"˚":{"ha":492,"x_min":0,"x_max":0,"o":"m 246 775 b 381 899 321 775 381 826 b 246 1022 381 971 321 1022 b 111 899 171 1022 111 971 b 246 775 111 826 171 775 z m 246 846 b 192 899 214 846 192 867 b 246 950 192 931 214 950 b 300 899 276 950 300 931 b 246 846 300 867 276 846 z "},"˜":{"ha":758,"x_min":0,"x_max":0,"o":"m 539 968 b 471 908 532 932 513 908 b 286 972 408 908 375 972 b 115 825 183 972 128 899 l 115 804 l 219 804 b 286 864 225 840 246 864 b 472 799 350 864 383 799 b 643 947 575 799 631 872 l 643 968 z "}}}
